<?xml version="1.0" encoding="UTF-8"?>
<svg width="150px" height="111px" viewBox="0 0 150 111" version="1.1" xmlns="http://www.w3.org/2000/svg" xmlns:xlink="http://www.w3.org/1999/xlink">
    <!-- Generator: Sketch 52.5 (67469) - http://www.bohemiancoding.com/sketch -->
    <title>Asset Inventory Icon</title>
    <desc>Created with Sketch.</desc>
    <g id="EIM-Screens" stroke="none" stroke-width="1" fill="none" fill-rule="evenodd">
        <g id="our-solutions/EIM-Main-Menu-Copy" transform="translate(-275.000000, -55.000000)">
            <g id="Asset-Inventory-Icon" transform="translate(277.214844, 55.470772)">
                <g id="Group-7" transform="translate(0.000000, 22.959842)" fill-rule="nonzero" stroke="#527086" stroke-linecap="round" stroke-linejoin="round" stroke-width="3">
                    <polyline id="Path" points="0 46.7906095 0 0.180352816 40.9473868 0.180352816 40.9473868 34.9248537"></polyline>
                    <path d="M33.0181179,8.79141791 L17.8820339,8.79141791" id="Line"></path>
                    <path d="M33.0181179,18.9203657 L17.8820339,18.9203657" id="Line-Copy-2"></path>
                    <path d="M33.0181179,29.0748547 L17.8820339,29.0748547" id="Line-Copy-4"></path>
                    <path d="M22.3428992,37.9898091 L17.8820339,37.9898091" id="Line-Copy-6"></path>
                    <path d="M10.123214,8.79141791 L8.40777724,8.79141791" id="Line-Copy"></path>
                    <path d="M10.123214,18.9203657 L8.40777724,18.9203657" id="Line-Copy-3"></path>
                    <path d="M10.123214,29.0748547 L8.40777724,29.0748547" id="Line-Copy-5"></path>
                    <path d="M10.123214,37.9898091 L8.40777724,37.9898091" id="Line-Copy-7"></path>
                </g>
                <g id="Group" transform="translate(0.000000, 68.939878)" fill="#527086">
                    <path d="M9.60560012,29.5380855 L2.98944511,29.5380855 C1.5278445,29.5380855 0.342983101,28.2486775 0.342983101,26.6581121 L0.342983101,15.1382187 C0.342983101,13.5476533 1.5278445,12.2582454 2.98944511,12.2582454 L9.60560012,12.2582454 C10.3364004,12.2582454 10.9288311,12.9029493 10.9288311,13.698232 L10.9288311,28.0980988 C10.9288311,28.8933815 10.3364004,29.5380855 9.60560012,29.5380855 Z M2.98944511,15.1382187 L2.98944511,26.6581121 L8.28236912,26.6581121 L8.28236912,15.1382187 L2.98944511,15.1382187 Z" id="Shape" fill-rule="nonzero"></path>
                    <path d="M22.8379101,41.0579789 C22.5379374,41.0582144 22.2467927,40.9475256 22.012214,40.7440618 L8.77990397,29.2241684 C8.20914894,28.7271167 8.11672975,27.8206629 8.57347994,27.1995471 C9.03023013,26.5784314 9.86318769,26.4778575 10.4339427,26.9749092 L21.5146791,36.61994 L21.5146791,5.17639086 L10.4339427,14.8243016 C9.86318769,15.3213533 9.03023014,15.2207794 8.57347995,14.5996637 C8.11672977,13.9785479 8.20914895,13.0720941 8.77990397,12.5750424 L22.012214,1.05514899 C22.4092589,0.71011552 22.952786,0.642964082 23.4108012,0.882356979 C23.8688163,1.12174988 24.1604178,1.6254018 24.1611411,2.1783386 L24.1611411,39.6179923 C24.1611411,40.4132749 23.5687104,41.0579789 22.8379101,41.0579789 Z" id="Path"></path>
                    <path d="M29.9304283,31.4964674 C29.3942923,31.4963497 28.9112073,31.1441863 28.7071028,30.6046771 C28.5029983,30.0651679 28.6182171,29.4449511 28.9988737,29.0340902 C30.9835866,26.8779839 32.0988752,23.9514376 32.0988752,20.8996054 C32.0988752,17.8477732 30.9835866,14.9212269 28.9988737,12.7651207 C28.6245076,12.4145056 28.4607429,11.8661784 28.574152,11.3430409 C28.6875611,10.8199034 29.0592637,10.409047 29.5381582,10.2774901 C30.0170526,10.1459331 30.5234128,10.3155771 30.8513971,10.7174596 C33.338734,13.414566 34.7368571,17.0784549 34.7368571,20.8996054 C34.7368571,24.7207559 33.338734,28.3846448 30.8513971,31.0817512 C30.6058117,31.3453341 30.2753543,31.4941405 29.9304283,31.4964674 Z" id="Path"></path>
                    <path d="M33.6619397,35.5572298 C33.1258038,35.5571122 32.6427187,35.2049487 32.4386142,34.6654395 C32.2345097,34.1259303 32.3497286,33.5057135 32.7303851,33.0948526 C35.7153786,29.867332 37.3939509,25.477339 37.3939509,20.8981654 C37.3939509,16.3189918 35.7153786,11.9289989 32.7303851,8.70147826 C32.3506661,8.35242126 32.1827333,7.80123017 32.295606,7.27444096 C32.4084788,6.74765176 32.7831152,6.33413501 33.2655421,6.20384344 C33.747969,6.07355187 34.2567999,6.24846597 34.5829085,6.65669717 C38.0695654,10.4246007 40.0304011,15.5508452 40.0304011,20.8981654 C40.0304011,26.2454856 38.0695654,31.3717301 34.5829085,35.1396337 C34.3377489,35.4042718 34.0072398,35.5541349 33.6619397,35.5572298 Z" id="Path"></path>
                </g>
                <path d="M63.5291224,30.603193 C63.0009853,31.5095242 62.6750942,32.586586 62.547419,33.8243868 L54.0966837,33.8243868 C53.2071756,33.8243868 52.4860868,33.103298 52.4860868,32.2137899 L52.4860868,22.6838212 C50.1788158,23.0709079 48.1487821,24.2755901 46.7040819,25.9897712 L46.7040819,21.6593989 C48.7967413,20.1909251 51.3460575,19.3290148 54.0966837,19.3290148 C59.772768,19.3290148 64.5916176,22.999273 66.309442,28.095999 C65.1347658,28.6520215 64.2352168,29.4507997 63.6046233,30.4770326 C62.8811344,26.4903041 59.7117665,23.3556466 55.7072806,22.6838212 L55.7072806,30.603193 L63.5291224,30.603193 Z M46.7040819,38.4378086 C48.4767473,40.5411307 51.1306676,41.8773713 54.0966837,41.8773713 C57.6879732,41.8773713 60.8217095,39.9183529 62.4875596,37.0106489 L62.4875596,39.5676498 L62.4875596,41.9918972 C60.1598852,43.9894994 57.1854583,45.0985651 54.0966837,45.0985651 C51.3460575,45.0985651 48.7967413,44.2366548 46.7040819,42.768181 L46.7040819,38.4378086 Z M37.9907147,17.7238484 L34.769521,17.7238484 L34.769521,3.22304586 C34.769521,1.44402966 36.2116985,0.00185207847 37.9907147,0.00185207847 L58.9284744,0.00185207847 C59.3559231,0.00108866724 59.7661434,0.170275581 60.068777,0.472146371 L72.9535521,13.3569215 C73.2554229,13.659555 73.4246098,14.0697754 73.4238464,14.4972241 L73.4238464,27.1626599 L71.2284161,27.1626599 C70.875569,27.1626599 70.5336635,27.1727374 70.2026526,27.1927756 L70.2026526,16.107821 L60.5390712,16.107821 C58.760055,16.107821 57.3178775,14.6656434 57.3178775,12.8866272 L57.3178775,3.22304586 L37.9907147,3.22304586 L37.9907147,17.7238484 Z M46.7040819,48.3197589 L62.4875596,48.3197589 L62.4875596,51.5409526 L46.7040819,51.5409526 L46.7040819,48.3197589 Z M60.5390712,5.50042987 L60.5390712,12.8866272 L67.9252686,12.8866272 L60.5390712,5.50042987 Z" id="Combined-Shape" fill="#527086" fill-rule="nonzero"></path>
                <g id="Group-3" transform="translate(104.617143, 12.990890)" fill="#527086">
                    <path d="M19.7816807,24.3160142 C19.2631065,24.3168346 18.7749043,24.0715457 18.4660338,23.6549897 C18.1571633,23.2384337 18.0642683,22.7000299 18.2156928,22.2040556 C18.2742793,22.0311707 18.3062475,21.8503852 18.3105021,21.6678928 C18.3105021,20.7651045 17.5786476,20.0332499 16.6758592,20.0332499 C13.9674943,20.0332499 11.7719306,17.8376863 11.7719306,15.1293213 C11.7719306,12.4209563 13.9674943,10.2253927 16.6758592,10.2253927 L19.945145,10.2253927 C20.8479333,10.2253927 21.5797878,10.9572473 21.5797878,11.8600356 C21.5797878,12.7628239 20.8479333,13.4946785 19.945145,13.4946785 L16.6758592,13.4946785 C15.7730709,13.4946785 15.0412164,14.226533 15.0412164,15.1293213 C15.0412164,16.0321096 15.7730709,16.7639642 16.6758592,16.7639642 C19.3842242,16.7639642 21.5797878,18.9595278 21.5797878,21.6678928 C21.5783601,22.1726415 21.5000901,22.6742308 21.3476686,23.1554178 C21.138641,23.845229 20.5024661,24.3167157 19.7816807,24.3160142 Z" id="Path"></path>
                    <path d="M16.6758592,13.4946785 C15.7730709,13.4946785 15.0412164,12.7628239 15.0412164,11.8600356 L15.0412164,8.59074986 C15.0412164,7.68796153 15.7730709,6.95610699 16.6758592,6.95610699 C17.5786476,6.95610699 18.3105021,7.68796153 18.3105021,8.59074986 L18.3105021,11.8600356 C18.3105021,12.7628239 17.5786476,13.4946785 16.6758592,13.4946785 Z" id="Path"></path>
                    <path d="M23.149045,35.0719643 C22.3727793,35.0746294 21.7017008,34.530977 21.5432189,33.7710566 C21.3847371,33.0111362 21.7825672,32.2445622 22.4951878,31.9367193 C28.542563,29.3067462 32.1010738,22.9739207 31.2025123,16.4409205 C30.3039508,9.90792029 25.1678644,4.77096648 18.635016,3.87130173 C12.1021676,2.97163699 5.76874127,6.52907822 3.13774702,12.5760092 C2.77663169,13.4047688 1.81204741,13.7838695 0.983287724,13.4227542 C0.15452804,13.0616388 -0.224572611,12.0970546 0.136542719,11.2682949 C3.34274333,3.85538321 11.0945992,-0.513841848 19.096512,0.581773543 C27.0984248,1.67738893 33.3905388,7.96950292 34.4861542,15.9714157 C35.5817696,23.9733285 31.2125445,31.7251844 23.7996328,34.931385 C23.5943674,35.0213239 23.3731317,35.0691286 23.149045,35.0719643 Z" id="Path"></path>
                </g>
                <g id="Group-4" transform="translate(123.832537, 56.759287)" fill="#527086">
                    <path d="M9.04590166,12.2980888 C6.42904534,12.3220835 3.8178966,12.0494855 1.26242286,11.4855115 C0.74455112,11.3637532 0.330975202,10.9749626 0.177485151,10.4655933 C0.0239951003,9.95622405 0.153909707,9.40366149 0.518291396,9.01605059 C0.882673085,8.62843968 1.42616361,8.46466775 1.94403534,8.58642611 C4.27603523,9.09845759 6.65846606,9.34508811 9.04590166,9.32161512 C16.8591452,9.32161512 20.9517966,7.11009514 20.9517966,6.34514139 C20.9517966,5.58018764 16.8591452,3.36866766 9.04590166,3.36866766 C6.6594603,3.34541923 4.2780406,3.59204844 1.94701181,4.10385667 C1.14645148,4.29207876 0.344884957,3.79568054 0.156662867,2.99512021 C-0.0315592235,2.19455988 0.464839,1.39299335 1.26539933,1.20477126 C3.81990212,0.641020892 6.43003966,0.368424278 9.04590166,0.392193932 C16.2132504,0.392193932 23.9282703,2.25546649 23.9282703,6.34514139 C23.9282703,10.4348163 16.2132504,12.2980888 9.04590166,12.2980888 Z" id="Path"></path>
                    <path d="M9.04590166,21.22751 C6.42904534,21.2515047 3.8178966,20.9789067 1.26242286,20.4149327 C0.744551113,20.2931744 0.330975186,19.9043837 0.177485132,19.3950145 C0.0239950768,18.8856452 0.153909685,18.3330827 0.518291379,17.9454718 C0.882673074,17.5578609 1.4261636,17.3940889 1.94403534,17.5158473 C4.27603523,18.0278788 6.65846606,18.2745093 9.04590166,18.2510363 C16.8591452,18.2510363 20.9517966,16.0395163 20.9517966,15.2745626 C20.9517966,14.4526321 21.6181029,13.7863257 22.4400334,13.7863257 C23.261964,13.7863257 23.9282703,14.4526321 23.9282703,15.2745626 C23.9282703,19.3642375 16.2132504,21.22751 9.04590166,21.22751 Z" id="Path"></path>
                    <path d="M9.04590166,30.1569312 C6.42904534,30.1809258 3.8178966,29.9083279 1.26242286,29.3443539 C0.461862526,29.1561318 -0.0345356973,28.3545653 0.153686393,27.5540049 C0.341908483,26.7534446 1.14347501,26.2570464 1.94403534,26.4452685 C4.27603523,26.9573 6.65846606,27.2039305 9.04590166,27.1804575 C16.8591452,27.1804575 20.9517966,24.9689375 20.9517966,24.2039838 C20.9517966,23.3820532 21.6181029,22.7157469 22.4400334,22.7157469 C23.261964,22.7157469 23.9282703,23.3820532 23.9282703,24.2039838 C23.9282703,28.2936587 16.2132504,30.1569312 9.04590166,30.1569312 Z" id="Path"></path>
                    <path d="M8.95389779,39.0863524 C6.33704148,39.110347 3.72589273,38.8377491 1.17041899,38.2737751 C0.652547261,38.1520167 0.238971352,37.7632261 0.085481305,37.2538569 C-0.0680087418,36.7444876 0.0619058637,36.1919251 0.426287547,35.8043142 C0.79066923,35.4167033 1.33415975,35.2529313 1.85203147,35.3746897 C4.18403136,35.8867211 6.56646219,36.1333517 8.95389779,36.1098787 C16.7671413,36.1098787 20.9517966,33.8983587 20.9517966,33.1334049 C20.9517966,32.3114744 21.6181029,31.6451681 22.4400334,31.6451681 C23.261964,31.6451681 23.9282703,32.3114744 23.9282703,33.1334049 C23.9282703,37.2230798 16.1212465,39.0863524 8.95389779,39.0863524 Z" id="Path"></path>
                    <path d="M22.4400334,34.6216418 C21.6181029,34.6216418 20.9517966,33.9553355 20.9517966,33.1334049 L20.9517966,6.34514139 C20.9517966,5.52321086 21.6181029,4.85690452 22.4400334,4.85690452 C23.261964,4.85690452 23.9282703,5.52321086 23.9282703,6.34514139 L23.9282703,33.1334049 C23.9282703,33.9553355 23.261964,34.6216418 22.4400334,34.6216418 Z" id="Path"></path>
                </g>
                <path d="M69.0074402,63.7119599 L65.5535574,63.7119599 L65.5535574,39.1234823 C65.5535574,34.3546654 69.4194473,30.4887755 74.1882642,30.4887755 L108.727091,30.4887755 C113.495908,30.4887755 117.361798,34.3546654 117.361798,39.1234823 L117.361798,46.0312477 C117.361798,46.9850111 116.58862,47.7581891 115.634857,47.7581891 L103.546267,47.7581891 L103.546267,49.4851305 C103.546267,50.4388938 102.773089,51.2120718 101.819326,51.2120718 C100.865563,51.2120718 100.092385,50.4388938 100.092385,49.4851305 L100.092385,39.1234823 C100.092385,37.1796269 100.734711,35.385795 101.818694,33.9426582 L74.1882642,33.9426582 C71.3269741,33.9426582 69.0074402,36.2621922 69.0074402,39.1234823 L69.0074402,63.7119599 Z M87.2313404,81.0913518 L92.5387431,78.9674733 C93.1163738,78.7132478 93.7866812,78.7943597 94.2870017,79.1790249 C94.7873221,79.5636901 95.0379676,80.1906415 94.9407212,80.8142047 C94.8434748,81.4377679 94.4138254,81.9586254 93.8201336,82.1726765 L87.2313404,84.8081937 L87.2313404,81.0913518 Z M100.092385,65.0276027 L100.092385,82.2970163 L117.361798,82.2970163 L117.361798,65.0276027 L100.092385,65.0276027 Z M100.092385,61.57372 L117.361798,61.57372 L117.361798,58.1198373 L100.092385,58.1198373 L100.092385,61.57372 Z M119.08874,85.750899 L98.3654432,85.750899 C97.4116799,85.750899 96.6385019,84.977721 96.6385019,84.0239576 L96.6385019,56.3928959 C96.6385019,55.4391325 97.4116799,54.6659545 98.3654432,54.6659545 L119.08874,54.6659545 C120.042503,54.6659545 120.815681,55.4391325 120.815681,56.3928959 L120.815681,84.0239576 C120.815681,84.977721 120.042503,85.750899 119.08874,85.750899 Z M103.546267,68.4814854 L107.00015,68.4814854 L107.00015,71.9353681 L103.546267,71.9353681 L103.546267,68.4814854 Z M110.454033,68.4814854 L113.907915,68.4814854 L113.907915,71.9353681 L110.454033,71.9353681 L110.454033,68.4814854 Z M103.546267,75.3892508 L107.00015,75.3892508 L107.00015,78.8431335 L103.546267,78.8431335 L103.546267,75.3892508 Z M110.454033,75.3892508 L113.907915,75.3892508 L113.907915,78.8431335 L110.454033,78.8431335 L110.454033,75.3892508 Z M103.546267,44.3043064 L113.907915,44.3043064 L113.907915,39.1234823 C113.907915,36.2621923 111.588381,33.9426584 108.727091,33.9426584 C105.865801,33.9426584 103.546267,36.2621923 103.546267,39.1234823 L103.546267,44.3043064 Z M94.9115605,44.3043064 L74.1882642,44.3043064 C73.2345009,44.3043064 72.4613229,43.5311284 72.4613229,42.577365 C72.4613229,41.6236017 73.2345009,40.8504237 74.1882642,40.8504237 L94.9115605,40.8504237 C95.8653239,40.8504237 96.6385019,41.6236017 96.6385019,42.577365 C96.6385019,43.5311284 95.8653239,44.3043064 94.9115605,44.3043064 Z M88.0037951,55.1726846 L74.1882642,55.1726846 C73.2345009,55.1726846 72.4613229,54.3995066 72.4613229,53.4457432 C72.4613229,52.4919799 73.2345009,51.7188019 74.1882642,51.7188019 L88.0037951,51.7188019 C88.9575585,51.7188019 89.7307364,52.4919799 89.7307364,53.4457432 C89.7307364,54.3995066 88.9575585,55.1726846 88.0037951,55.1726846 Z M84.5499124,62.08045 L74.1882642,62.08045 C73.2345009,62.08045 72.4613229,61.307272 72.4613229,60.3535087 C72.4613229,59.3997453 73.2345009,58.6265673 74.1882642,58.6265673 L84.5499124,58.6265673 C85.5036757,58.6265673 86.2768537,59.3997453 86.2768537,60.3535087 C86.2768537,61.307272 85.5036757,62.08045 84.5499124,62.08045 Z" id="Combined-Shape" fill="#527086" fill-rule="nonzero"></path>
                <g id="Group-2" transform="translate(36.829505, 66.880429)" fill="#527086">
                    <path d="M7.75580547,26.3971136 L32.8542447,26.3971136 L32.7297998,3.07308648 C12.8936689,3.07308648 2.97560345,3.07308648 2.97560345,3.07308648 L2.97560345,4.06337931 L0.136501366,4.06337931 L0.13707327,3.07308648 C0.105628072,1.49783216 1.37482416,0.194218927 2.97560345,0.157583083 L32.8542447,0.157583083 C34.455024,0.194218927 35.7242201,1.49783216 35.6927749,3.07308648 L35.6927749,26.3971136 C35.7242201,27.972368 34.455024,29.2759812 32.8542447,29.312617 L7.75580547,29.312617 L7.75580547,26.3971136 Z" id="Shape" fill-rule="nonzero"></path>
                    <path d="M46.1340247,26.3978195 C45.9146052,26.3978043 45.6982143,26.3448951 45.5020532,26.2432978 L34.2168473,20.412291 C33.7657879,20.1794914 33.4691761,19.7157036 33.4387426,19.195632 C33.4083091,18.6755604 33.6486775,18.1782162 34.0693035,17.8909442 C34.4899294,17.6036722 35.0269097,17.5701158 35.4779691,17.8029155 L44.723374,22.5814255 L44.723374,6.89018626 L35.4807904,11.6657808 C34.783513,12.0256578 33.9359462,11.7332672 33.5876971,11.0127081 C33.2394479,10.2921489 33.5223912,9.41628233 34.2196686,9.05640529 L45.5048745,3.2253985 C45.9423687,3.00011326 46.4615403,3.02492939 46.8770417,3.29098736 C47.2925431,3.55704532 47.5451483,4.02642095 47.5446755,4.53154402 L47.5446755,24.9400678 C47.5446755,25.7451618 46.9131056,26.3978195 46.1340247,26.3978195 Z" id="Path"></path>
                    <path d="M28.2853371,8.90479911 L19.3964117,8.90479911 C18.5782087,8.90479911 17.9149241,8.25214144 17.9149241,7.44704741 C17.9149241,6.64195338 18.5782087,5.98929571 19.3964117,5.98929571 L28.2853371,5.98929571 C29.10354,5.98929571 29.7668246,6.64195338 29.7668246,7.44704741 C29.7668246,8.25214144 29.10354,8.90479911 28.2853371,8.90479911 Z" id="Path"></path>
                </g>
            </g>
        </g>
    </g>
</svg>