<?xml version="1.0" encoding="UTF-8"?>
<svg width="147px" height="89px" viewBox="0 0 147 89" version="1.1" xmlns="http://www.w3.org/2000/svg" xmlns:xlink="http://www.w3.org/1999/xlink">
    <!-- Generator: Sketch 52.5 (67469) - http://www.bohemiancoding.com/sketch -->
    <title>Community and Domains</title>
    <desc>Created with Sketch.</desc>
    <g id="EIM-Screens" stroke="none" stroke-width="1" fill="none" fill-rule="evenodd">
        <g id="our-solutions/EIM-Main-Menu-Copy" transform="translate(-278.000000, -229.000000)" fill="#D4B46A">
            <g id="Community-and-Domains" transform="translate(277.214844, 229.026984)">
                <g id="Group-11" transform="translate(0.405799, 13.454545)">
                    <path d="M42.4064398,13.6142163 C38.8614002,13.6142163 35.9875778,10.7403939 35.9875778,7.19535431 C35.9875778,3.65031472 38.8614002,0.776492307 42.4064398,0.776492307 C45.9514794,0.776492307 48.8253018,3.65031472 48.8253018,7.19535431 C48.8253018,8.89774236 48.1490308,10.530405 46.9452606,11.7341752 C45.7414905,12.9379453 44.1088278,13.6142163 42.4064398,13.6142163 Z M42.4064398,3.98592331 C40.63392,3.98592331 39.1970088,5.42283451 39.1970088,7.19535431 C39.1970088,8.96787411 40.63392,10.4047853 42.4064398,10.4047853 C44.1789596,10.4047853 45.6158708,8.96787411 45.6158708,7.19535431 C45.6158708,6.34416029 45.2777353,5.52782895 44.6758502,4.92594389 C44.0739652,4.32405882 43.2576338,3.98592331 42.4064398,3.98592331 Z" id="Shape" fill-rule="nonzero"></path>
                    <path d="M44.1716268,48.9179574 L40.6412527,48.9179574 C38.9935135,48.9272379 37.6064587,47.6872109 37.4318217,46.048726 L36.5973697,39.4918585 C36.5203313,38.9207599 36.7554328,38.3522038 37.2133125,38.0022971 C37.6711923,37.6523904 38.2815355,37.574867 38.8123521,37.7991933 C39.3431687,38.0235196 39.7129433,38.5152467 39.7811252,39.0874702 L40.6155773,45.6668038 L44.1459514,45.7085264 L45.6158708,34.2701143 C45.7197666,33.4648891 46.4087135,32.8641273 47.2205863,32.8708023 L48.6584114,32.8708023 L47.374639,20.0330783 L39.1970088,20.0330783 C38.3107489,20.0330783 37.5922933,19.3146227 37.5922933,18.4283628 C37.5922933,17.5421029 38.3107489,16.8236473 39.1970088,16.8236473 L47.3810578,16.8236473 C49.0287971,16.8143668 50.4158519,18.0543938 50.5904889,19.6928786 L52.0347328,34.3182557 C52.07926,34.7703736 51.9300617,35.2201784 51.6241585,35.5560601 C51.3182554,35.8919418 50.8843172,36.0824207 50.4300173,36.0802333 L48.6295265,36.0802333 L47.3650107,46.0711921 C47.1803796,47.694645 45.8055432,48.9202528 44.1716268,48.9179574 Z" id="Path"></path>
                    <path d="M10.3121298,13.6142163 C6.76709016,13.6142163 3.89326775,10.7403939 3.89326775,7.19535431 C3.89326775,3.65031472 6.76709016,0.776492307 10.3121298,0.776492307 C13.8571694,0.776492307 16.7309918,3.65031472 16.7309918,7.19535431 C16.7309918,8.89774236 16.0547207,10.530405 14.8509506,11.7341752 C13.6471805,12.9379453 12.0145178,13.6142163 10.3121298,13.6142163 Z M10.3121298,3.98592331 C8.53960996,3.98592331 7.10269876,5.42283451 7.10269876,7.19535431 C7.10269876,8.96787411 8.53960996,10.4047853 10.3121298,10.4047853 C12.0846496,10.4047853 13.5215608,8.96787411 13.5215608,7.19535431 C13.5215608,6.34416029 13.1834253,5.52782895 12.5815402,4.92594389 C11.9796551,4.32405882 11.1633238,3.98592331 10.3121298,3.98592331 Z" id="Shape" fill-rule="nonzero"></path>
                    <path d="M12.0773168,48.9179574 L8.54694271,48.9179574 C6.89920345,48.9272379 5.5121487,47.6872109 5.3375117,46.048726 L4.08904304,36.0802333 L2.28855225,36.0802333 C1.83425231,36.0824207 1.40031417,35.8919418 1.09441102,35.5560601 C0.788507866,35.2201784 0.639309573,34.7703736 0.68383675,34.3182557 L2.13770899,19.7121352 C2.31307342,18.0710732 3.69673616,16.8257767 5.34714,16.8236473 L13.5215608,16.8236473 C14.4078207,16.8236473 15.1262763,17.5421029 15.1262763,18.4283628 C15.1262763,19.3146227 14.4078207,20.0330783 13.5215608,20.0330783 L5.3375117,20.0330783 L4.0537393,32.8708023 L5.49798325,32.8708023 C6.30985602,32.8641273 6.99880297,33.4648891 7.10269876,34.2701143 L8.55015214,45.6668038 L12.0773168,45.7085264 L12.9246066,39.0874702 C12.9927886,38.5152467 13.3625631,38.0235196 13.8933797,37.7991933 C14.4241963,37.574867 15.0345396,37.6523904 15.4924193,38.0022971 C15.9502991,38.3522038 16.1854005,38.9207599 16.1083622,39.4918585 L15.2739101,46.0711921 C15.0891433,47.6958654 13.7124581,48.9218894 12.0773168,48.9179574 Z" id="Path"></path>
                    <path d="M26.3592848,13.6142163 C22.8142452,13.6142163 19.9404228,10.7403939 19.9404228,7.19535431 C19.9404228,3.65031472 22.8142452,0.776492307 26.3592848,0.776492307 C29.9043244,0.776492307 32.7781468,3.65031472 32.7781468,7.19535431 C32.7781468,8.89774236 32.1018758,10.530405 30.8981056,11.7341752 C29.6943355,12.9379453 28.0616728,13.6142163 26.3592848,13.6142163 Z M26.3592848,3.98592331 C24.586765,3.98592331 23.1498538,5.42283451 23.1498538,7.19535431 C23.1498538,8.96787411 24.586765,10.4047853 26.3592848,10.4047853 C28.1318046,10.4047853 29.5687158,8.96787411 29.5687158,7.19535431 C29.5687158,6.34416029 29.2305803,5.52782895 28.6286952,4.92594389 C28.0268101,4.32405882 27.2104788,3.98592331 26.3592848,3.98592331 Z" id="Shape" fill-rule="nonzero"></path>
                    <path d="M28.1148435,52.1273884 L24.603726,52.1273884 C22.9493347,52.1356791 21.5597154,50.8850218 21.394295,49.2389005 L20.091266,36.0802333 L18.3357073,36.0802333 C17.88079,36.0825142 17.4462825,35.8916022 17.1402682,35.5549865 C16.8342539,35.2183707 16.6854938,34.7676883 16.7309918,34.3150463 L18.2009112,19.7121352 C18.3663316,18.0660139 19.7559509,16.8153566 21.4103422,16.8236473 L31.3242745,16.8236473 C32.9786658,16.8153566 34.3682851,18.0660139 34.5337055,19.7121352 L35.9875778,34.3150463 C36.0330758,34.7676883 35.8843157,35.2183707 35.5783014,35.5549865 C35.2722871,35.8916022 34.8377795,36.0825142 34.3828623,36.0802333 L32.6273035,36.0802333 L31.3114368,49.2389005 C31.1464895,50.8801141 29.7643244,52.1290585 28.1148435,52.1273884 Z M20.1105226,32.8708023 L21.5451383,32.8708023 C22.3723339,32.866657 23.0671436,33.4919856 23.1498538,34.3150463 L24.603726,48.9179574 L28.1148435,48.9179574 L29.5687158,34.3150463 C29.651426,33.4919856 30.3462356,32.866657 31.1734313,32.8708023 L32.6080469,32.8708023 L31.3242745,20.0330783 L21.394295,20.0330783 L20.1105226,32.8708023 Z" id="Shape" fill-rule="nonzero"></path>
                </g>
                <path d="M66.3614169,51.3681365 L57.6846435,51.3681365 C57.3876384,51.3676463 57.1210776,51.1372764 57.0125361,50.787281 C56.9039947,50.4372855 56.9755515,50.0388586 57.1929596,49.7826859 L66.7446411,38.5527161 L57.1929596,27.3227462 C56.9755515,27.0665735 56.9039947,26.6681466 57.0125361,26.3181512 C57.1210776,25.9681558 57.3876384,25.7377858 57.6846435,25.7372956 L66.3614169,25.7372956 C66.5438918,25.7375972 66.7195292,25.8252308 66.8531008,25.9826194 L76.9760032,37.8826527 C77.1229658,38.0558196 77.2064405,38.2985465 77.2064405,38.5527161 C77.2064405,38.8068857 77.1229658,39.0496126 76.9760032,39.2227795 L66.8531008,51.1228128 C66.7195292,51.2802013 66.5438918,51.3678349 66.3614169,51.3681365 Z M59.5255656,49.5373622 L66.0721912,49.5373622 L75.4156301,38.5527161 L66.0721912,27.56807 L59.5255656,27.56807 L68.2992297,37.8808219 C68.4461923,38.0539888 68.529667,38.2967157 68.529667,38.5508853 C68.529667,38.8050549 68.4461923,39.0477818 68.2992297,39.2209487 L59.5255656,49.5373622 Z" id="Shape" stroke="#D4B46A" fill-rule="nonzero"></path>
                <g id="Group-10" transform="translate(94.107026, 58.993007)">
                    <path d="M9.5876856,29.8987653 L1.71582489,29.8987653 C0.99124012,29.8987653 0.403848105,29.3106423 0.403848105,28.5851558 L0.403848105,20.703499 C0.403848105,19.9780125 0.99124012,19.3898896 1.71582489,19.3898896 L9.5876856,19.3898896 C10.3122704,19.3898896 10.8996624,19.9780125 10.8996624,20.703499 L10.8996624,28.5851558 C10.8996624,29.3106423 10.3122704,29.8987653 9.5876856,29.8987653 Z M3.02780168,27.2715464 L8.27570882,27.2715464 L8.27570882,22.0171085 L3.02780168,22.0171085 L3.02780168,27.2715464 Z" id="Shape" fill-rule="nonzero"></path>
                    <path d="M25.331407,29.8987653 L17.4595463,29.8987653 C16.7349615,29.8987653 16.1475695,29.3106423 16.1475695,28.5851558 L16.1475695,20.703499 C16.1475695,19.9780125 16.7349615,19.3898896 17.4595463,19.3898896 L25.331407,19.3898896 C26.0559918,19.3898896 26.6433838,19.9780125 26.6433838,20.703499 L26.6433838,28.5851558 C26.6433838,29.3106423 26.0559918,29.8987653 25.331407,29.8987653 Z M18.7715231,27.2715464 L24.0194302,27.2715464 L24.0194302,22.0171085 L18.7715231,22.0171085 L18.7715231,27.2715464 Z" id="Shape" fill-rule="nonzero"></path>
                    <path d="M41.0751284,29.8987653 L33.2032677,29.8987653 C32.478683,29.8987653 31.891291,29.3106423 31.891291,28.5851558 L31.891291,20.703499 C31.891291,19.9780125 32.478683,19.3898896 33.2032677,19.3898896 L41.0751284,19.3898896 C41.7997132,19.3898896 42.3871052,19.9780125 42.3871052,20.703499 L42.3871052,28.5851558 C42.3871052,29.3106423 41.7997132,29.8987653 41.0751284,29.8987653 Z M34.5152445,27.2715464 L39.7631517,27.2715464 L39.7631517,22.0171085 L34.5152445,22.0171085 L34.5152445,27.2715464 Z" id="Shape" fill-rule="nonzero"></path>
                    <path d="M37.1391981,22.0171085 C36.4146133,22.0171085 35.8272213,21.4289855 35.8272213,20.703499 L35.8272213,14.1354517 L6.96373203,14.1354517 L6.96373203,20.703499 C6.96373203,21.4289855 6.37634002,22.0171085 5.65175525,22.0171085 C4.92717048,22.0171085 4.33977846,21.4289855 4.33977846,20.703499 L4.33977846,12.8218422 C4.33977846,12.0963557 4.92717048,11.5082328 5.65175525,11.5082328 L37.1391981,11.5082328 C37.8637829,11.5082328 38.4511749,12.0963557 38.4511749,12.8218422 L38.4511749,20.703499 C38.4511749,21.4289855 37.8637829,22.0171085 37.1391981,22.0171085 Z" id="Path"></path>
                    <path d="M21.3954767,22.0171085 C20.6708919,22.0171085 20.0834999,21.3373231 20.0834999,20.4987654 L20.0834999,2.27864822 C20.0834999,1.44009048 20.6708919,0.760305125 21.3954767,0.760305125 C22.1200614,0.760305125 22.7074535,1.44009048 22.7074535,2.27864822 L22.7074535,20.4987654 C22.7074535,21.3373231 22.1200614,22.0171085 21.3954767,22.0171085 Z" id="Path"></path>
                </g>
                <path d="M143.744629,5.44735158 L101.937399,5.44735158 C99.3675436,0.0371289786 97.8054744,0.0371289786 97.2750604,0.0371289786 L87.8151271,0.0371289786 C85.7014274,0.0371289786 83.9828861,1.76362649 83.9828861,3.88528241 L83.9828861,54.4310827 C83.9828861,56.5527386 85.7014274,58.2765841 87.8151271,58.2765841 L97.0416783,58.2765841 C97.7736496,58.2765841 98.3677132,57.6825204 98.3677132,56.9505491 C98.3677132,56.2185778 97.7736496,55.6245142 97.0416783,55.6245142 L87.8151271,55.6245142 C87.1627179,55.6245142 86.634956,55.088796 86.634956,54.4310827 L86.634956,18.6307911 L144.927452,18.6307911 L144.927452,54.4337348 C144.927452,55.0914481 144.397038,55.6245142 143.747281,55.6245142 L134.305912,55.6245142 C133.573941,55.6245142 132.979878,56.2185778 132.979878,56.9505491 C132.979878,57.6825204 133.573941,58.2765841 134.305912,58.2765841 L143.747281,58.2765841 C145.860981,58.2765841 147.579522,56.5527386 147.579522,54.4337348 L147.579522,9.29550501 C147.579522,7.17384909 145.858329,5.44735158 143.744629,5.44735158 Z M86.6323039,15.9787212 L86.6323039,3.88528241 C86.6323039,3.224917 87.1627179,2.68919888 87.812475,2.68919888 L97.0894155,2.68919888 C97.675523,3.14005077 98.9405603,5.22988185 99.8793931,7.31706086 C100.094211,7.79178138 100.566279,8.09942149 101.088737,8.09942149 L143.744629,8.09942149 C144.394386,8.09942149 144.9248,8.63513961 144.9248,9.29550501 L144.9248,15.9787212 L86.6323039,15.9787212 Z" id="Shape" fill-rule="nonzero"></path>
                <g id="Group-9" transform="translate(99.450597, 29.755513)">
                    <path d="M16.4974402,32.1085828 C7.90845589,32.1085828 0.945708403,25.1458353 0.945708403,16.556851 C0.945708403,7.96786675 7.90845589,1.00511927 16.4974402,1.00511927 C25.0864245,1.00511927 32.049172,7.96786675 32.049172,16.556851 C32.049172,20.6814268 30.4106906,24.6370706 27.4941752,27.553586 C24.5776597,30.4701015 20.6220159,32.1085828 16.4974402,32.1085828 Z M16.4974402,4.89305221 C10.055702,4.89305221 4.83364135,10.1151128 4.83364135,16.556851 C4.83364135,22.9985893 10.055702,28.2206499 16.4974402,28.2206499 C22.9391784,28.2206499 28.161239,22.9985893 28.161239,16.556851 C28.161239,10.1151128 22.9391784,4.89305221 16.4974402,4.89305221 Z" id="Shape" fill-rule="nonzero"></path>
                    <path d="M14.5334499,22.399745 C14.0175256,22.4006664 13.5223958,22.1964603 13.1571216,21.8321067 L9.2691887,17.9441738 C8.53247943,17.1814024 8.54301541,15.9689391 9.29286898,15.2190855 C10.0427226,14.4692319 11.2551859,14.4586959 12.0179573,15.1954052 L14.529562,17.7070099 L20.9290996,11.3074723 C21.41718,10.8021254 22.1399533,10.5994552 22.8196212,10.7773581 C23.4992891,10.9552611 24.0300794,11.4860513 24.2079823,12.1657192 C24.3858853,12.8453871 24.1832151,13.5681605 23.6778682,14.0562409 L15.9020023,21.8321067 C15.5386359,22.1945583 15.0466799,22.3986082 14.5334499,22.399745 Z" id="Path"></path>
                </g>
            </g>
        </g>
    </g>
</svg>