<?xml version="1.0" encoding="UTF-8"?>
<svg width="147px" height="118px" viewBox="0 0 147 118" version="1.1" xmlns="http://www.w3.org/2000/svg" xmlns:xlink="http://www.w3.org/1999/xlink">
    <!-- Generator: Sketch 52.5 (67469) - http://www.bohemiancoding.com/sketch -->
    <title>IM Architecture</title>
    <desc>Created with Sketch.</desc>
    <g id="EIM-Screens" stroke="none" stroke-width="1" fill="none" fill-rule="evenodd">
        <g id="our-solutions/EIM-Main-Menu-Copy" transform="translate(-278.000000, -556.000000)" fill="#306F74">
            <g id="IM-Architecture" transform="translate(277.214844, 555.470772)">
                <path d="M141.916848,28.2384509 C141.552846,28.1569237 141.174061,28.1138727 140.785135,28.1138727 L137.287287,28.1138727 L137.287287,16.8764361 L81.7325555,16.8764361 L81.7325555,38.2890723 C80.5107493,37.4279587 79.1531359,36.7215875 77.6815617,36.2055886 C77.4892364,36.1381509 77.2963521,36.0744514 77.1029974,36.0144588 L77.1029946,16.8764361 C77.1029946,14.3196002 79.1757196,12.2468752 81.7325555,12.2468752 L137.287287,12.2468752 C139.844123,12.2468752 141.916848,14.3196002 141.916848,16.8764361 L141.916848,28.2384509 Z M145.876202,59.2282821 C146.290522,59.6465429 146.546409,60.2220212 146.546409,60.8572649 C146.546409,61.4925086 146.290522,62.0679869 145.876202,62.4862477 L145.876202,59.2282821 Z M107.184089,63.1720454 L103.449219,63.1720454 C103.239697,62.7298008 103.008981,62.2946654 102.757079,61.8680739 C102.029993,60.6367657 101.153502,59.5225357 100.157905,58.5424844 L107.184089,58.5424844 L107.184089,63.1720454 Z" id="Combined-Shape"></path>
                <path d="M127.59692,74.4475889 L113.319963,74.4475889 C110.767287,74.4475889 108.695549,72.3758513 108.695549,69.8231748 L108.695549,34.6776276 C108.695549,32.1249511 110.767287,30.0532135 113.319963,30.0532135 L139.216682,30.0532135 C141.769359,30.0532135 143.841096,32.1249511 143.841096,34.6776276 L143.841096,45.076447 L140.141565,45.076447 L140.141565,35.6025105 L112.395081,35.6025105 L112.395081,67.8485159 L127.59692,67.8485159 L127.59692,74.4475889 Z" id="Combined-Shape" fill-rule="nonzero"></path>
                <path d="M145.339744,46.5544678 L131.016359,46.5544678 C130.027536,46.5544678 129.225936,47.3560675 129.225936,48.344891 L129.225936,73.4108152 C129.225936,74.3996386 130.027536,75.2012383 131.016359,75.2012383 L145.339744,75.2012383 C146.328568,75.2012383 147.130167,74.3996386 147.130167,73.4108152 L147.130167,48.344891 C147.130167,47.3560675 146.328568,46.5544678 145.339744,46.5544678 Z M145.339744,69.8299689 L131.016359,69.8299689 L131.016359,50.1353141 L145.339744,50.1353141 L145.339744,69.8299689 Z" id="Shape" fill-rule="nonzero"></path>
                <g id="thin-0358-database-raid" transform="translate(27.098592, 31.886572) scale(-1, 1) translate(-27.098592, -31.886572) translate(0.000000, 0.097840)" fill-rule="nonzero">
                    <path d="M53.3754138,8.79269005 C53.3780839,8.78200959 53.3834242,8.77132913 53.3834242,8.76064867 C53.4101253,8.54436932 53.3700736,8.33610032 53.3033207,8.13851177 C52.3634401,2.81163153 42.6976223,0.886478317 34.3455013,0.886478317 C25.9960504,0.886478317 16.3329027,2.81163153 15.3876819,8.13584166 C15.3342796,8.28002789 15.2942278,8.43489459 15.2942278,8.59777163 C15.2942278,8.64850382 15.3102485,8.7152567 15.3182589,8.77666936 C15.3155887,8.85143259 15.2942278,8.91818547 15.2942278,8.99294871 C15.2942278,9.00095905 15.2942278,9.0089694 15.2942278,9.01697975 C15.2942278,9.02499009 15.2942278,9.03300044 15.2942278,9.04101078 L15.2942278,9.55901317 C7.6496874,10.1250776 0.189384938,12.4133665 0.189384938,17.5159571 C0.189384938,17.5346479 0.189384938,17.5560088 0.189384938,17.5746996 L0.189384938,55.3755235 C0.189384938,55.7199684 0.250797593,56.0617432 0.328230939,56.243311 C1.59653576,61.3912935 11.3104156,63.2176525 19.2406584,63.2176525 C27.1735713,63.2176525 36.884781,61.3886234 38.1050238,56.3928375 C38.2278491,56.0697535 38.2892617,55.7253086 38.2892617,55.3728534 L38.2892617,54.5504579 C42.6281993,54.2220337 51.9709331,52.9216875 53.2152069,47.8564785 C53.3353621,47.5280543 53.3941046,47.1916198 53.3941046,46.8525151 L53.3941046,9.05169125 C53.3941046,9.04101078 53.3941046,9.03033032 53.3941046,9.01964986 C53.3941046,9.01163951 53.3941046,9.00095905 53.3941046,8.99294871 C53.3967747,8.92352571 53.3780839,8.86211305 53.3754138,8.79269005 Z M19.1525446,24.1565341 C26.6689195,24.1565341 32.4550596,22.394258 35.6164762,20.3729806 L35.6031256,29.7130443 C35.0637623,30.7196778 29.7475625,34.2682612 19.1552147,34.2682612 C8.65632091,34.2682612 3.43357516,30.8051215 2.86484058,29.6569719 L2.86484058,20.4691047 C5.91945261,22.4343097 11.5133444,24.1565341 19.1525446,24.1565341 Z M50.7213191,11.7832193 L50.7079685,21.2781497 C50.2540489,22.0898648 46.323639,24.7866814 38.2919319,25.5343137 L38.2919319,17.5746996 C38.2919319,17.5640192 38.2919319,17.5533387 38.2919319,17.5426583 C38.2919319,17.5346479 38.2919319,17.5239674 38.2919319,17.5159571 C38.2919319,17.4492042 38.2732411,17.3877916 38.2705709,17.3210387 C38.2732411,17.3076881 38.2785813,17.2943375 38.2812514,17.2809869 C38.3079526,17.0647076 38.2679008,16.8537685 38.1984778,16.6561799 C38.1183744,16.2076005 37.9875387,15.777712 37.7899502,15.3771947 C43.3224293,14.9125946 47.9737703,13.4760725 50.7213191,11.7832193 Z M2.86217047,33.2482771 C5.91945261,35.213482 11.5133444,36.9357065 19.1525446,36.9357065 C26.6528988,36.9357065 32.4310285,35.1814407 35.5951153,33.1655035 L35.5817647,42.5189178 C34.9836589,43.5522525 29.6754694,47.0474336 19.1525446,47.0474336 C8.64831056,47.0474336 3.4228947,43.5789536 2.85950035,42.4334741 L2.86217047,33.2482771 Z M38.2919319,28.2151096 C43.6882351,27.739829 48.080575,26.3567092 50.7026283,24.7199285 L50.6866076,34.0920336 C50.1766156,34.9331199 46.2568861,37.5872146 38.2919319,38.3214964 L38.2919319,28.2151096 Z M34.3455013,3.55659373 C42.9940051,3.55659373 49.8642121,5.67666537 50.6412156,8.46960609 C49.9042638,9.47089937 44.9325089,12.5361919 35.4055371,12.8352448 C31.7341284,10.3787386 25.1603043,9.40948671 19.2433285,9.40948671 C18.8214503,9.40948671 18.3942318,9.42016717 17.9670133,9.42817752 L17.9670133,9.11043378 C17.9696835,9.07572228 17.9696835,9.0436809 17.9696835,9.01163951 C17.9696835,8.98226824 17.9696835,8.95556709 17.9670133,8.92619582 C18.0711478,5.90896541 25.2297273,3.55659373 34.3455013,3.55659373 Z M19.2406584,12.076932 C27.9025128,12.076932 34.7834002,14.2023439 35.541713,17.0032949 C34.8234519,18.0873618 29.5339533,21.4864187 19.1525446,21.4864187 C8.92600256,21.4864187 3.72995797,18.2101871 2.94494404,16.9846041 C3.72728786,14.1943335 10.5974948,12.076932 19.2406584,12.076932 Z M19.2406584,60.5502072 C10.6322063,60.5502072 3.61514301,58.4247953 2.85950035,55.3755235 L2.85950035,46.0301196 C5.9167825,47.9953245 11.5106743,49.7202191 19.1525446,49.7202191 C26.6368781,49.7202191 32.4069975,47.9739636 35.5764245,45.9633667 L35.5604038,55.6051534 C34.8688439,58.4247953 27.8517806,60.5502072 19.2406584,60.5502072 Z M38.2919319,51.8616516 L38.2919319,40.996952 C43.6748845,40.5270117 48.059214,39.1519023 50.6812674,37.5177916 L50.6652467,47.0794749 C50.0751512,49.4745685 45.1567986,51.3329688 38.2919319,51.8616516 Z" id="Shape"></path>
                </g>
                <path d="M33.9853047,66.2041962 C34.287683,66.208637 34.5882745,66.210831 34.8866586,66.210831 C36.071862,66.210831 37.2920208,66.1762437 38.5208474,66.1033561 C37.8744598,67.6128396 37.5705411,69.2921794 37.6956515,71.0339247 C38.0945594,76.5873853 42.7197467,80.8915081 48.296328,80.8987391 L86.6834332,80.8987391 C92.5724923,80.8987391 97.3465179,76.1323003 97.3465179,70.2526001 C97.3465179,64.3729 92.5724923,59.6064612 86.6834332,59.6064612 C85.8444697,59.6049103 85.0087725,59.7108165 84.1968018,59.9215869 C83.4136264,60.1282324 82.5808048,59.8740292 82.0472466,59.2654754 C81.5136883,58.6569216 81.3715242,57.7990976 81.6803138,57.0513879 C82.1789691,55.8355145 82.4298204,54.5325818 82.4181993,53.2187779 C82.391938,48.1217514 78.7508747,43.7584286 73.734373,42.8123846 C68.7178714,41.8663406 63.7335748,44.6030378 61.8469761,49.3393248 C61.6062595,49.9665838 61.0831912,50.4436516 60.4357791,50.6264163 C59.788367,50.8091809 59.0925355,50.6762089 58.5584808,50.2676682 C57.9667723,49.812705 57.3031088,49.4695416 56.6000948,49.2492087 L56.6000948,44.869353 C57.4098287,45.0153676 58.2018205,45.2559448 58.9594127,45.5876255 C62.6175347,39.5161918 70.051111,36.8551567 76.7397978,39.2226906 C83.4284847,41.5902246 87.5232815,48.3318536 86.53415,55.3480057 C91.8675246,55.3213812 96.8099925,58.1375788 99.499774,62.7357641 C102.189555,67.3339494 102.218009,73.0155488 99.5744156,77.6403586 C96.9308225,82.2651684 92.0168077,85.1305701 86.6834332,85.1571946 L48.296328,85.1571946 C40.9066278,85.1285894 34.6499451,79.7063713 33.5824636,72.4057439 C33.2707348,70.2737949 33.4289251,68.1690402 33.9853047,66.2041962 Z M70.1968573,93.669667 L70.0712202,93.669667 C69.8122852,94.5292085 69.1396672,95.2018265 68.2816578,95.4592293 L68.2816578,95.5848664 C68.2816578,96.0077424 67.9384541,96.3509461 67.5155781,96.3509461 C67.0927021,96.3509461 66.7494983,96.0077424 66.7494983,95.5848664 L66.7494983,95.4592293 C65.8899568,95.2002943 65.2173388,94.5276763 64.959936,93.669667 L64.8342989,93.669667 C64.4114229,93.669667 64.0682191,93.3264632 64.0682191,92.9035872 C64.0682191,92.4807112 64.4114229,92.1375074 64.8342989,92.1375074 L64.959936,92.1375074 C65.2924146,91.0343526 66.3051721,90.222308 67.5155781,90.222308 C68.7259841,90.222308 69.7402737,91.0343526 70.0712202,92.1375074 L70.1968573,92.1375074 C70.6197333,92.1375074 70.962937,92.4807112 70.962937,92.9035872 C70.962937,93.3264632 70.6212655,93.669667 70.1968573,93.669667 Z M67.5155781,91.7544675 C66.8827962,91.7544675 66.3664584,92.2708053 66.3664584,92.9035872 C66.3664584,93.5363691 66.8827962,94.0527068 67.5155781,94.0527068 C68.14836,94.0527068 68.6646977,93.5363691 68.6646977,92.9035872 C68.6646977,92.2708053 68.14836,91.7544675 67.5155781,91.7544675 Z M89.7855169,93.669667 L89.6598798,93.669667 C89.4009449,94.5292085 88.7283268,95.2018265 87.8703175,95.4592293 L87.8703175,95.5848664 C87.8703175,96.0077424 87.5271137,96.3509461 87.1042377,96.3509461 C86.6813617,96.3509461 86.338158,96.0077424 86.338158,95.5848664 L86.338158,95.4592293 C85.4786165,95.2002943 84.8059984,94.5276763 84.5485956,93.669667 L84.4229585,93.669667 C84.0000825,93.669667 83.6568788,93.3264632 83.6568788,92.9035872 C83.6568788,92.4807112 84.0000825,92.1375074 84.4229585,92.1375074 L84.5485956,92.1375074 C84.8810742,91.0343526 85.8938317,90.222308 87.1042377,90.222308 C88.3146438,90.222308 89.3289334,91.0343526 89.6598798,92.1375074 L89.7855169,92.1375074 C90.2083929,92.1375074 90.5515967,92.4807112 90.5515967,92.9035872 C90.5515967,93.3264632 90.2099251,93.669667 89.7855169,93.669667 Z M87.1042377,91.7544675 C86.4714558,91.7544675 85.9551181,92.2708053 85.9551181,92.9035872 C85.9551181,93.5363691 86.4714558,94.0527068 87.1042377,94.0527068 C87.7370196,94.0527068 88.2533574,93.5363691 88.2533574,92.9035872 C88.2533574,92.2708053 87.7370196,91.7544675 87.1042377,91.7544675 Z M42.1966418,93.669667 L41.430562,93.669667 C41.007686,93.669667 40.6644823,93.3264632 40.6644823,92.9035872 C40.6644823,92.4807112 41.007686,92.1375074 41.430562,92.1375074 L42.1966418,92.1375074 C42.6195178,92.1375074 42.9627216,92.4807112 42.9627216,92.9035872 C42.9627216,93.3264632 42.62105,93.669667 42.1966418,93.669667 Z M93.2696477,93.669667 L92.5035679,93.669667 C92.0806919,93.669667 91.7374881,93.3264632 91.7374881,92.9035872 C91.7374881,92.4807112 92.0806919,92.1375074 92.5035679,92.1375074 L93.2696477,92.1375074 C93.6925237,92.1375074 94.0357274,92.4807112 94.0357274,92.9035872 C94.0357274,93.3264632 93.6940559,93.669667 93.2696477,93.669667 Z M50.2772512,93.669667 L50.1531462,93.669667 C49.8942113,94.5292085 49.2215933,95.2018265 48.3635839,95.4592293 L48.3635839,95.5848664 C48.3635839,96.0077424 48.0203802,96.3509461 47.5975041,96.3509461 C47.1746281,96.3509461 46.8314244,96.0077424 46.8314244,95.5848664 L46.8314244,95.4592293 C45.9718829,95.2002943 45.2992648,94.5276763 45.041862,93.669667 L44.9146928,93.669667 C44.4918168,93.669667 44.148613,93.3264632 44.148613,92.9035872 C44.148613,92.4807112 44.4918168,92.1375074 44.9146928,92.1375074 L45.0403299,92.1375074 C45.3728085,91.0343526 46.385566,90.222308 47.595972,90.222308 C48.806378,90.222308 49.8206676,91.0343526 50.1516141,92.1375074 L50.2772512,92.1375074 C50.7001272,92.1375074 51.0433309,92.4807112 51.0433309,92.9035872 C51.0433309,93.3264632 50.7016594,93.669667 50.2772512,93.669667 Z M47.595972,91.7544675 C46.9616579,91.7544675 46.4468523,92.2708053 46.4468523,92.9035872 C46.4468523,93.5363691 46.9616579,94.0527068 47.595972,94.0527068 C48.230286,94.0527068 48.7450916,93.5363691 48.7450916,92.9035872 C48.7450916,92.2708053 48.230286,91.7544675 47.595972,91.7544675 Z M55.5708624,93.669667 L54.2470765,93.669667 C53.8242005,93.669667 53.4809968,93.3264632 53.4809968,92.9035872 C53.4809968,92.4807112 53.8242005,92.1375074 54.2470765,92.1375074 L55.5708624,92.1375074 C55.9937384,92.1375074 56.3369421,92.4807112 56.3369421,92.9035872 C56.3369421,93.3264632 55.9952706,93.669667 55.5708624,93.669667 Z M75.4904685,93.669667 L74.1666826,93.669667 C73.7438066,93.669667 73.4006029,93.3264632 73.4006029,92.9035872 C73.4006029,92.4807112 73.7438066,92.1375074 74.1666826,92.1375074 L75.4904685,92.1375074 C75.9133445,92.1375074 76.2565482,92.4807112 76.2565482,92.9035872 C76.2565482,93.3264632 75.9148766,93.669667 75.4904685,93.669667 Z M60.8644735,93.669667 L59.5406877,93.669667 C59.1178117,93.669667 58.7746079,93.3264632 58.7746079,92.9035872 C58.7746079,92.4807112 59.1178117,92.1375074 59.5406877,92.1375074 L60.8644735,92.1375074 C61.2873496,92.1375074 61.6305533,92.4807112 61.6305533,92.9035872 C61.6305533,93.3264632 61.2888817,93.669667 60.8644735,93.669667 Z M80.7840796,93.669667 L79.4602938,93.669667 C79.0374178,93.669667 78.694214,93.3264632 78.694214,92.9035872 C78.694214,92.4807112 79.0374178,92.1375074 79.4602938,92.1375074 L80.7840796,92.1375074 C81.2069557,92.1375074 81.5501594,92.4807112 81.5501594,92.9035872 C81.5501594,93.3264632 81.2084878,93.669667 80.7840796,93.669667 Z M67.5155781,98.1926019 C67.9384541,98.1926019 68.2816578,98.5358056 68.2816578,98.9586817 L68.2816578,99.7247614 C68.2816578,100.147637 67.9384541,100.490841 67.5155781,100.490841 C67.0927021,100.490841 66.7494983,100.147637 66.7494983,99.7247614 L66.7494983,98.9586817 C66.7494983,98.5342735 67.0927021,98.1926019 67.5155781,98.1926019 Z M67.5155781,86.573531 C67.9384541,86.573531 68.2816578,86.9167347 68.2816578,87.3396108 L68.2816578,88.1056905 C68.2816578,88.5285665 67.9384541,88.8717703 67.5155781,88.8717703 C67.0927021,88.8717703 66.7494983,88.5285665 66.7494983,88.1056905 L66.7494983,87.3396108 C66.7494983,86.9152026 67.0927021,86.573531 67.5155781,86.573531 Z M87.1042377,98.1926019 C87.5271137,98.1926019 87.8703175,98.5358056 87.8703175,98.9586817 L87.8703175,99.7247614 C87.8703175,100.147637 87.5271137,100.490841 87.1042377,100.490841 C86.6813617,100.490841 86.338158,100.147637 86.338158,99.7247614 L86.338158,98.9586817 C86.338158,98.5342735 86.6813617,98.1926019 87.1042377,98.1926019 Z M87.1042377,86.573531 C87.5271137,86.573531 87.8703175,86.9167347 87.8703175,87.3396108 L87.8703175,88.1056905 C87.8703175,88.5285665 87.5271137,88.8717703 87.1042377,88.8717703 C86.6813617,88.8717703 86.338158,88.5285665 86.338158,88.1056905 L86.338158,87.3396108 C86.338158,86.9152026 86.6813617,86.573531 87.1042377,86.573531 Z M46.8298922,99.7247614 L46.8298922,98.9586817 C46.8298922,98.5358056 47.173096,98.1926019 47.595972,98.1926019 C48.018848,98.1926019 48.3620518,98.5358056 48.3620518,98.9586817 L48.3620518,99.7247614 C48.3620518,100.147637 48.018848,100.490841 47.595972,100.490841 C47.173096,100.490841 46.8298922,100.147637 46.8298922,99.7247614 Z M46.8298922,88.1056905 L46.8298922,87.3396108 C46.8298922,86.9167347 47.173096,86.573531 47.595972,86.573531 C48.018848,86.573531 48.3620518,86.9167347 48.3620518,87.3396108 L48.3620518,88.1056905 C48.3620518,88.5285665 48.018848,88.8717703 47.595972,88.8717703 C47.173096,88.8717703 46.8298922,88.5285665 46.8298922,88.1056905 Z M46.846746,114.650412 L46.846746,114.651944 L41.4734625,114.651944 C40.210963,114.651944 39.1859483,113.70507 39.1859483,112.540629 L39.1859483,103.137766 C39.1859483,101.924295 40.2553957,100.860977 41.4734625,100.860977 L53.857908,100.860977 C55.0407352,100.860977 56.0397032,101.902845 56.0397032,103.137766 L56.0397032,112.539096 C56.0397032,113.723456 55.0821035,114.650412 53.857908,114.650412 L48.3789055,114.650412 L48.3789055,116.182572 L49.1557104,116.182572 C49.5801186,116.182572 49.9217902,116.525776 49.9217902,116.948652 C49.9217902,117.371528 49.5785864,117.714731 49.1557104,117.714731 L46.1802566,117.714731 C45.7573805,117.714731 45.4141768,117.371528 45.4141768,116.948652 C45.4141768,116.525776 45.7573805,116.182572 46.1802566,116.182572 L46.846746,116.182572 L46.846746,114.650412 Z M41.4734625,102.393136 C41.113405,102.393136 40.7181078,102.782305 40.7181078,103.137766 L40.7181078,110.053934 L54.5075436,110.053934 L54.5075436,103.136233 C54.5075436,102.754726 54.1919188,102.393136 53.857908,102.393136 L41.4734625,102.393136 Z M40.7181078,112.539096 C40.7181078,112.880768 41.1164693,113.118253 41.4734625,113.118253 L53.857908,113.118253 C54.1704685,113.118253 54.5075436,112.937458 54.5075436,112.539096 L54.5075436,111.586093 L40.7181078,111.586093 L40.7181078,112.539096 Z M73.7759819,100.860977 C74.9603413,100.860977 75.9593093,101.902845 75.9577771,103.137766 L75.9577771,112.539096 C75.9577771,113.723456 74.9986452,114.650412 73.7744498,114.650412 L68.2969794,114.650412 L68.2969794,116.182572 L69.0737843,116.182572 C69.4966604,116.182572 69.8398641,116.525776 69.8398641,116.948652 C69.8398641,117.371528 69.4966604,117.714731 69.0737843,117.714731 L66.0998627,117.714731 C65.6769866,117.714731 65.3337829,117.371528 65.3337829,116.948652 C65.3337829,116.525776 65.6769866,116.182572 66.0998627,116.182572 L66.7663521,116.182572 L66.7663521,114.650412 L61.3915364,114.650412 C60.1305691,114.650412 59.1055544,113.703538 59.1055544,112.539096 L59.1055544,103.136233 C59.1055544,101.924295 60.1734696,100.860977 61.3915364,100.860977 L73.7759819,100.860977 Z M61.3915364,102.393136 C61.0330111,102.393136 60.6377139,102.782305 60.6377139,103.137766 L60.6377139,110.053934 L74.4271497,110.053934 L74.4271497,103.136233 C74.4271497,102.754726 74.1115249,102.393136 73.7759819,102.393136 L61.3915364,102.393136 Z M73.7759819,113.118253 C74.0900746,113.118253 74.4271497,112.937458 74.4271497,112.539096 L74.4271497,111.586093 L60.6377139,111.586093 L60.6377139,112.539096 C60.6377139,112.880768 61.0360754,113.118253 61.3915364,113.118253 L73.7759819,113.118253 Z M93.3646416,100.860977 C94.5490009,100.860977 95.5479689,101.902845 95.5464367,103.137766 L95.5464367,112.539096 C95.5464367,113.723456 94.5873049,114.650412 93.3631094,114.650412 L87.8856391,114.650412 L87.8856391,116.182572 L88.662444,116.182572 C89.08532,116.182572 89.4285237,116.525776 89.4285237,116.948652 C89.4285237,117.371528 89.08532,117.714731 88.662444,117.714731 L85.6885223,117.714731 C85.2656463,117.714731 84.9224425,117.371528 84.9224425,116.948652 C84.9224425,116.525776 85.2656463,116.182572 85.6885223,116.182572 L86.3550117,116.182572 L86.3550117,114.650412 L80.9801961,114.650412 C79.7192288,114.650412 78.694214,113.703538 78.694214,112.539096 L78.694214,103.136233 C78.694214,101.924295 79.7621292,100.860977 80.9801961,100.860977 L93.3646416,100.860977 Z M80.9801961,102.393136 C80.6216707,102.393136 80.2263736,102.782305 80.2263736,103.137766 L80.2263736,110.053934 L94.0158094,110.053934 L94.0158094,103.136233 C94.0158094,102.754726 93.7001845,102.393136 93.3646416,102.393136 L80.9801961,102.393136 Z M93.3646416,113.118253 C93.6787343,113.118253 94.0158094,112.937458 94.0158094,112.539096 L94.0158094,111.586093 L80.2263736,111.586093 L80.2263736,112.539096 C80.2263736,112.880768 80.6247351,113.118253 80.9801961,113.118253 L93.3646416,113.118253 Z" id="Combined-Shape" fill-rule="nonzero"></path>
            </g>
        </g>
    </g>
</svg>