<?xml version="1.0" encoding="UTF-8"?>
<svg width="147px" height="103px" viewBox="0 0 147 103" version="1.1" xmlns="http://www.w3.org/2000/svg" xmlns:xlink="http://www.w3.org/1999/xlink">
    <!-- Generator: Sketch 52.5 (67469) - http://www.bohemiancoding.com/sketch -->
    <title>Policy Management</title>
    <desc>Created with Sketch.</desc>
    <g id="EIM-Screens" stroke="none" stroke-width="1" fill="none" fill-rule="evenodd">
        <g id="our-solutions/EIM-Main-Menu-Copy" transform="translate(-278.000000, -383.000000)">
            <g id="Policy-Management" transform="translate(277.214844, 382.470772)">
                <path d="M63.7086093,56.0856895 L63.7086093,52.1366151 L93.3337863,52.1366151 L93.3337863,48.1875408 L63.7086093,48.1875408 L63.7086093,40.5173148 C63.7086093,38.506186 62.9665039,36.6683852 61.7411915,35.2628107 L61.7411915,24.4930947 L53.8430428,24.4930947 L53.8430428,32.5173148 L49.8939685,32.5173148 L49.8939685,24.4930947 L45.9448941,24.4930947 L45.9448941,32.5173148 L41.9958198,32.5173148 L41.9958198,24.4930947 L40.0212826,24.4930947 C38.9307758,24.4930947 38.0467454,23.6090643 38.0467454,22.5185575 L38.0467454,18.5694832 C38.0469739,17.8610217 38.426739,17.2069818 39.0419121,16.8555849 L66.6854326,1.05928752 C67.2963565,0.706570427 68.0490458,0.706570427 68.6599698,1.05928752 L96.3034902,16.8555849 C96.912583,17.2110023 97.2858866,17.8642836 97.2828606,18.5694832 L97.2828606,22.5185575 C97.2828606,23.6090643 96.3988302,24.4930947 95.3083234,24.4930947 L93.3337863,24.4930947 L93.3337863,44.2384664 C95.5147998,44.2384664 97.2828606,46.0065272 97.2828606,48.1875408 L97.2828606,54.1111523 C97.2828606,55.2016591 96.3988302,56.0856895 95.3083234,56.0856895 L63.7086093,56.0856895 Z M89.3847119,24.4930947 L85.4356376,24.4930947 L85.4356376,44.2384664 L89.3847119,44.2384664 L89.3847119,24.4930947 Z M81.4865632,24.4930947 L73.5884145,24.4930947 L73.5884145,44.2384664 L81.4865632,44.2384664 L81.4865632,24.4930947 Z M69.6393402,24.4930947 L65.6902658,24.4930947 L65.6902658,44.2384664 L69.6393402,44.2384664 L69.6393402,24.4930947 Z M41.9958198,20.5440204 L93.3337863,20.5440204 L93.3337863,19.7147147 L67.664803,5.04785261 L41.9958198,19.7147147 L41.9958198,20.5440204 Z" id="Combined-Shape" fill="#8D2E33" fill-rule="nonzero"></path>
                <g id="Group-15" transform="translate(0.606712, 29.576917)" fill="#8D2E33">
                    <path d="M55.398621,65.5971375 L45.4168819,65.5971375 L45.4168819,11.4105538 L49.6947701,11.4105538 C50.4819016,11.4105538 51.1207329,10.7717225 51.1207329,9.98459103 C51.1207329,9.1974596 50.4819016,8.5586283 49.6947701,8.5586283 L43.9909192,8.5586283 C43.2037878,8.5586283 42.5649565,9.1974596 42.5649565,9.98459103 L42.5649565,67.0231002 C42.5649565,67.8102316 43.2037878,68.4490629 43.9909192,68.4490629 L55.398621,68.4490629 C56.1857525,68.4490629 56.8245838,67.8102316 56.8245838,67.0231002 C56.8245838,66.2359688 56.1886044,65.5971375 55.398621,65.5971375 Z" id="Path" stroke="#8D2E33" transform="translate(49.694770, 38.503846) scale(-1, 1) translate(-49.694770, -38.503846) "></path>
                    <path d="M9.76781371,11.4105538 L14.0457019,11.4105538 L14.0457019,24.2869972 C14.0457019,25.0741286 14.6845332,25.7129599 15.4716646,25.7129599 C16.258796,25.7129599 16.8976274,25.0741286 16.8976274,24.2869972 L16.8976274,9.98459103 C16.8976274,9.1974596 16.258796,8.5586283 15.4716646,8.5586283 L9.76781371,8.5586283 C8.98068228,8.5586283 8.34185098,9.1974596 8.34185098,9.98459103 C8.34185098,10.7717225 8.98068228,11.4105538 9.76781371,11.4105538 Z" id="Path" stroke="#8D2E33" transform="translate(12.619739, 17.135794) scale(-1, 1) translate(-12.619739, -17.135794) "></path>
                    <path d="M39.641718,42.5397197 L42.4558566,42.5397197 C43.4819056,42.5397197 44.314641,43.178551 44.314641,43.9656824 C44.314641,44.7528138 43.4819056,45.3916451 42.4558566,45.3916451 L39.641718,45.3916451 L39.641718,42.5397197 Z M39.2181818,33.9839433 L42.4558566,33.9839433 C43.4819056,33.9839433 44.314641,34.6227746 44.314641,35.409906 C44.314641,36.1970374 43.4819056,36.8358687 42.4558566,36.8358687 L39.641718,36.8358687 L39.641718,35.3889723 C39.6413017,34.8781676 39.4884312,34.392191 39.2181818,33.9839433 Z M20.3170574,25.4281669 L42.4558566,25.4281669 C43.4819056,25.4281669 44.314641,26.0669982 44.314641,26.8541296 C44.314641,27.6412611 43.4819056,28.2800924 42.4558566,28.2800924 L26.9715502,28.2800924 L20.3170574,25.4281669 Z" id="Combined-Shape" stroke="#8D2E33"></path>
                    <path d="M32.4406211,8.52725712 C32.8113714,8.52725712 33.1536025,8.38466085 33.4673143,8.0994683 C33.7239876,7.84279501 33.8665838,7.50056396 33.8665838,7.12981365 C33.8665838,6.73054408 33.6954683,6.35979377 33.438795,6.10312048 C32.8969292,5.56125464 31.9272745,5.5897739 31.4424472,6.10312048 C31.1572546,6.35979377 31.0146584,6.73054408 31.0146584,7.12981365 C31.0146584,7.50056396 31.1572546,7.84279501 31.4139279,8.12798756 C31.6991205,8.38466085 32.0698708,8.52725712 32.4406211,8.52725712 Z" id="Path" transform="translate(32.440621, 7.117300) scale(-1, 1) translate(-32.440621, -7.117300) "></path>
                    <path d="M25.4534037,17.1144047 L39.713031,17.1144047 C42.8587048,17.1144047 45.4168819,14.5562275 45.4168819,11.4105538 C45.4168819,8.26487998 42.8587048,5.70670284 39.713031,5.70670284 L39.713031,5.25039477 C39.713031,2.15890757 36.5502457,0.00285192546 33.7097279,0.00285192546 L31.7304917,0.00285192546 C28.7673411,0.00285192546 25.4534037,2.24731726 25.4534037,5.25324669 L25.4534037,5.70955477 C22.3077299,5.70955477 19.7495528,8.2677319 19.7495528,11.4134057 C19.7495528,14.5590795 22.3077299,17.1144047 25.4534037,17.1144047 Z M25.4534037,8.5586283 L26.8793665,8.5586283 C27.6664979,8.5586283 28.3053292,7.919797 28.3053292,7.13266557 L28.3053292,5.25039477 C28.3053292,4.01551105 30.2332308,2.85477738 31.7304917,2.85477738 L33.7097279,2.85477738 C35.1356907,2.85477738 36.8611056,3.92424943 36.8611056,5.25039477 L36.8611056,7.13266557 C36.8611056,7.919797 37.4999369,8.5586283 38.2870683,8.5586283 L39.713031,8.5586283 C41.2872939,8.5586283 42.5649565,9.83914283 42.5649565,11.4105538 C42.5649565,12.9819647 41.2872939,14.2624792 39.713031,14.2624792 L25.4534037,14.2624792 C23.8819928,14.2624792 22.6014783,12.9819647 22.6014783,11.4105538 C22.6014783,9.83914283 23.8819928,8.5586283 25.4534037,8.5586283 Z" id="Shape" stroke="#8D2E33" fill-rule="nonzero" transform="translate(32.583217, 8.558628) scale(-1, 1) translate(-32.583217, -8.558628) "></path>
                    <g id="Group-14" transform="translate(0.081101, 29.536290)">
                        <path d="M17.9898322,44.342685 C17.6025439,44.3432404 17.2218656,44.2423377 16.8856994,44.0500233 C4.7624093,37.0660504 0.252758235,29.9357466 0.252758235,17.737074 L0.252758235,8.868537 C0.249678598,7.98415219 0.772479462,7.1825242 1.58303878,6.82877349 L17.1029785,0.17737074 C17.6633215,-0.0569088903 18.2941716,-0.0569088903 18.8545146,0.17737074 L34.3744543,6.82877349 C35.1936964,7.17575322 35.7261811,7.97884492 35.7269062,8.868537 L35.7269062,17.737074 C35.7269062,29.9534837 31.2172552,37.0837875 19.0939651,44.0500233 C18.7577988,44.2423377 18.3771206,44.3432404 17.9898322,44.342685 Z M4.68702673,10.3318456 L4.68702673,17.737074 C4.68702673,27.9624972 8.07480787,33.5984524 17.9898322,39.553675 C27.9048566,33.6117552 31.2926377,27.9758 31.2926377,17.737074 L31.2926377,10.3318456 L17.9898322,4.62937631 L4.68702673,10.3318456 Z" id="Shape" fill-rule="nonzero"></path>
                        <path d="M15.772698,28.8227452 L15.6795783,28.8227452 C14.9712055,28.7921609 14.3201865,28.4246236 13.9280423,27.8339034 L9.49377379,21.1825006 C9.05415505,20.5234686 8.99951999,19.6799641 9.35044909,18.9697271 C9.7013782,18.2594902 10.404557,17.7904226 11.1951048,17.7392176 C11.9856526,17.6880127 12.7434665,18.0624496 13.1830852,18.7214816 L15.9367659,22.8497856 L22.907436,14.1320137 C23.6727419,13.1756875 25.0684005,13.0208349 26.0247268,13.7861408 C26.981053,14.5514467 27.1359056,15.9471053 26.3705997,16.9034315 L17.5020627,27.9891028 C17.0820402,28.5150911 16.4458114,28.821786 15.772698,28.8227452 Z" id="Path"></path>
                    </g>
                </g>
                <path d="M139.437563,53.8993816 L139.092462,53.5520831 C138.226414,52.690431 137.004275,52.3936886 135.876654,52.7256005 L119.26787,36.1168172 C119.597584,34.9979884 119.305238,33.7670568 118.43919,32.9010086 L118.094089,32.5581062 C116.823592,31.2832128 114.750791,31.2832128 113.478096,32.5581062 L101.520475,44.5157268 C100.24778,45.7884221 100.24778,47.8590247 101.520475,49.1339181 L101.867774,49.4790186 C102.72503,50.3384725 103.949367,50.6308188 105.068196,50.3076992 L121.690168,66.9296711 C121.369246,68.0463018 121.661593,69.2706391 122.518849,70.1300931 L122.863949,70.4751935 C123.501396,71.1126402 124.336671,71.4313635 125.174144,71.4313635 C126.011617,71.4313635 126.846892,71.1126402 127.484338,70.4751935 L139.439761,58.519771 C140.712456,57.2448777 140.712456,55.1720769 139.437563,53.8993816 Z M103.421825,47.9227694 L103.076725,47.5798671 C102.661285,47.1644277 102.661285,46.4852172 103.076725,46.0697778 L115.034345,34.1121573 C115.436596,33.7077083 116.135589,33.7033122 116.544434,34.1143554 L116.889535,34.4572577 C117.225843,34.7913677 117.278597,35.3167117 117.047797,35.7255568 L104.68353,48.0832301 C104.268091,48.3140298 103.758133,48.2612756 103.421825,47.9227694 Z M106.87283,49.0042307 L117.962204,37.9170546 L134.076416,54.0312671 L122.991438,65.1228394 L106.87283,49.0042307 Z M137.883512,56.96572 L125.928089,68.9211424 C125.51265,69.3365818 124.833439,69.3365818 124.415802,68.9211424 L124.0729,68.576042 C123.734393,68.2397339 123.681639,67.7275785 123.912439,67.309941 L136.267914,54.9500696 C136.68775,54.7170718 137.197707,54.769826 137.538411,55.1083322 L137.883512,55.4534327 C138.301149,55.8710701 138.301149,56.5480825 137.883512,56.96572 Z" id="Shape" stroke="#8D2E33" fill="#8D2E33" fill-rule="nonzero"></path>
                <path d="M107.731489,61.0232425 L107.731534,61.0231973 C108.648674,60.1060572 110.13692,60.1089639 111.053352,61.0253954 C111.970135,61.9421787 111.970135,63.4304301 111.053397,64.3471682 L89.562458,85.840282 C89.1163877,86.2818006 88.5206894,86.5227989 87.9049943,86.5227989 C87.286915,86.5227989 86.6896186,86.2823933 86.2429862,85.8357609 C85.3262029,84.9189776 85.3262029,83.4307262 86.242941,82.5139881 L107.731489,61.0232425 Z" id="Path" stroke="#8D2E33" stroke-width="2.5"></path>
                <g id="Group-17" transform="translate(120.432239, 83.994192)" fill="#8D2E33" fill-rule="nonzero">
                    <path d="M25.7000342,8.50406975 L1.88281561,8.50406975 C1.15204413,8.50406975 0.559636799,7.91166242 0.559636799,7.18089094 L0.559636799,1.88817571 C0.559636799,1.15740423 1.15204413,0.564996898 1.88281561,0.564996898 L25.7000342,0.564996898 C26.4308056,0.564996898 27.023213,1.15740423 27.023213,1.88817571 L27.023213,7.18089094 C27.023213,7.91166242 26.4308056,8.50406975 25.7000342,8.50406975 Z M3.20599441,5.85771213 L24.3768553,5.85771213 L24.3768553,3.21135451 L3.20599441,3.21135451 L3.20599441,5.85771213 Z" id="Shape"></path>
                </g>
                <g id="Group-17-Copy" transform="translate(123.361516, 80.340232)" fill="#8D2E33" fill-rule="nonzero">
                    <path d="M20.0621493,6.61427647 L1.63068204,6.61427647 C1.0651588,6.61427647 0.606711632,6.15351521 0.606711632,5.5851374 L0.606711632,1.4685811 C0.606711632,0.90020329 1.0651588,0.439442032 1.63068204,0.439442032 L20.0621493,0.439442032 C20.6276726,0.439442032 21.0861197,0.90020329 21.0861197,1.4685811 L21.0861197,5.5851374 C21.0861197,6.15351521 20.6276726,6.61427647 20.0621493,6.61427647 Z M2.65465244,4.55599832 L19.0381789,4.55599832 L19.0381789,2.49772018 L2.65465244,2.49772018 L2.65465244,4.55599832 Z" id="Shape"></path>
                </g>
            </g>
        </g>
    </g>
</svg>