<?xml version="1.0" encoding="UTF-8"?>
<svg width="149px" height="112px" viewBox="0 0 149 112" version="1.1" xmlns="http://www.w3.org/2000/svg" xmlns:xlink="http://www.w3.org/1999/xlink">
    <!-- Generator: Sketch 52.5 (67469) - http://www.bohemiancoding.com/sketch -->
    <title>Tools and Settings</title>
    <desc>Created with Sketch.</desc>
    <g id="EIM-Screens" stroke="none" stroke-width="1" fill="none" fill-rule="evenodd">
        <g id="our-solutions/EIM-Main-Menu-Copy" transform="translate(-277.000000, -732.000000)" fill="#492334">
            <g id="Tools-and-Settings" transform="translate(277.214844, 732.475543)">
                <path d="M125.317418,34.5980612 L125.317418,32.7784842 C125.317418,32.0449443 125.230805,31.3361887 125.067351,30.6623164 L130.089893,38.3963523 C131.208502,40.1188597 133.965876,40.3201287 136.237118,38.8451668 C138.50836,37.3702049 139.446017,34.7693553 138.327407,33.0468478 L132.670048,24.3352786 C131.757018,24.3399961 130.920195,24.0599914 130.286698,23.5462087 L124.775917,27.7021034 C124.828515,28.2089439 124.768372,28.7393564 124.59698,29.2614264 C123.333214,26.3599907 120.532472,24.3873652 117.204805,24.3873652 L107.526537,24.3873652 C107.662214,24.2834643 107.803105,24.184032 107.949148,24.0894135 L120.858939,16.9419631 L115.064791,8.01975768 L114.89595,8.12940459 C114.542032,8.3592414 114.078991,8.33218726 113.752548,8.06408799 L111.439866,6.15914077 C111.262285,6.01364275 111.143401,5.80925296 111.102109,5.58217298 L110.694704,3.29855356 C110.62629,2.91597542 110.794193,2.52765278 111.120511,2.31573903 L113.083293,1.04109362 C113.409611,0.829179865 113.832654,0.833738288 114.15433,1.05184606 L116.074814,2.35286041 C116.264412,2.48132156 116.402777,2.67305978 116.464522,2.89609069 L117.264125,5.78364297 C117.377893,6.18985519 117.212649,6.62492237 116.858731,6.85475918 L116.68989,6.9644061 L122.558374,16.0010784 L126.291497,13.9342505 C126.318939,11.566739 126.801558,6.09000416 130.47873,3.70202081 C133.600673,1.67460714 137.531387,1.37241216 140.995529,2.89658783 C141.320807,3.03849555 141.538814,3.34931665 141.569991,3.70298924 C141.599545,4.05771613 141.431662,4.39986339 141.134566,4.59279979 L135.824178,8.04140619 L134.181037,11.8874799 L136.874766,16.0354597 L141.053977,16.0981456 L146.362742,12.6505935 C146.661461,12.4566028 147.042313,12.4423976 147.353297,12.6120533 C147.66639,12.7849559 147.857366,13.1110223 147.859004,13.465413 C147.842415,17.250002 145.96758,20.7179741 142.845637,22.7453878 C140.22486,24.4473402 136.834607,24.0308462 134.315266,23.3109078 L139.952506,31.9914963 C141.652033,34.6085387 140.458816,38.4117083 137.293039,40.467588 C134.127262,42.5234676 130.167568,42.0666376 128.468041,39.4495952 L125.317418,34.5980612 Z M113.599081,3.01889701 L112.714287,3.59348902 L112.945596,4.89509816 L114.435275,6.12273412 L115.209673,5.61983432 L114.694079,3.75961998 L113.599081,3.01889701 Z M129.981901,27.4358623 L134.923392,35.0450917 C135.214378,35.4931709 135.086882,36.092992 134.638803,36.383978 C134.190724,36.6749641 133.590903,36.5474682 133.299917,36.0993889 L128.358426,28.4901595 C128.067439,28.0420803 128.194935,27.4422592 128.643015,27.1512732 C129.091094,26.8602871 129.690915,26.987783 129.981901,27.4358623 Z" id="Combined-Shape" fill-rule="nonzero"></path>
                <path d="M33.7318971,72.3472283 C30.914341,72.7326551 28.0035403,72.9075115 25.2585041,72.9075115 C15.0934375,72.9075115 2.65528575,70.5097511 1.05075506,63.7485537 C0.956549657,63.5112119 0.883616443,63.0943424 0.883616443,62.6683444 L0.883616443,12.0080491 C0.883616443,11.4633802 0.968705192,10.9491397 1.09633832,10.4470706 C1.12368827,10.2827571 1.17231041,10.1306149 1.24828251,9.98760127 C3.28433471,4.01754305 14.3002888,1.33071257 25.2585041,1.33071257 C36.3139637,1.33071257 47.427162,4.0631857 49.3203867,10.0849723 C49.3568533,10.1701719 49.390281,10.2523286 49.4085143,10.3466568 C49.5422252,10.8548116 49.6333917,11.3751377 49.6333917,11.9289352 C49.6333917,11.971535 49.6303528,12.0141348 49.627314,12.0567346 L49.6287947,24.3873652 L46.5945078,24.3873652 L46.5945078,14.3419098 C42.6804254,17.0317831 35.0102825,19.5025717 25.1460654,19.5025717 C15.2879261,19.5025717 7.77276621,17.1017685 3.91946144,14.4240666 L3.91946144,27.7699765 C4.59409367,29.5865539 11.7810541,34.220804 25.1430265,34.220804 C28.3585647,34.220804 31.2239818,33.9503295 33.7319062,33.5165512 L33.7318971,36.5804667 C31.1137725,37.012142 28.2347718,37.2636471 25.1430265,37.2636471 C15.3304704,37.2636471 7.830505,34.8324154 3.91946144,32.0999423 L3.91946144,45.1111395 C4.58193813,46.9155455 11.7719374,51.5589241 25.1430265,51.5589241 C28.3585647,51.5589241 31.2239818,51.2884496 33.7319062,50.8546713 L33.7318971,53.9156396 C31.1137725,54.3472193 28.2347718,54.5987244 25.1430265,54.5987244 C15.3304704,54.5987244 7.830505,52.1705356 3.91946144,49.4380624 L3.91946144,62.6683444 C3.94073363,62.7231155 3.99239466,62.9908857 4.00455019,63.0486998 C4.94356531,66.9983101 13.8809228,69.8646684 25.2554652,69.8646684 C28.2898314,69.8646684 31.1504151,69.6607922 33.7318971,69.2868642 L33.7318971,72.3472283 Z M25.2554652,4.3735557 C15.8470807,4.3735557 5.93424146,6.57048844 4.2111943,10.6600696 C5.12285946,12.1936625 12.3402087,16.4597286 25.1460654,16.4597286 C37.9519221,16.4597286 45.2604378,12.2393052 46.2845417,10.6205126 C44.5159113,6.55527422 34.6334609,4.3735557 25.2554652,4.3735557 Z" id="Combined-Shape" stroke="#492334" stroke-width="2" fill-rule="nonzero"></path>
                <path d="M91.3197324,96.2965346 C90.3934914,96.4463677 89.760106,97.3215292 89.9133444,98.2477702 L91.4661602,107.697471 L66.627919,107.68385 L68.1568976,98.2477702 C68.3067307,97.3215292 67.6767507,96.4463677 66.7471044,96.2965346 C65.803837,96.1160539 64.9457019,96.7766816 64.7924636,97.7029226 L63.1374889,108.068649 C63.1374889,109.74065 64.6324146,111.106174 66.4746806,111.106174 L91.5921562,111.106174 C93.4344222,111.106174 94.9293479,109.744055 94.9089161,107.796225 L93.2743732,97.7029226 C93.1245401,96.7732763 92.2391628,96.1330803 91.3197324,96.2965346 Z" id="Path"></path>
                <path d="M112.664138,29.2836818 L45.4061039,29.2836818 C41.3503944,29.2836818 38.1732517,32.4710405 38.1732517,36.5403712 L38.1732517,83.2985134 C38.1732517,87.37806 41.3503944,90.5790399 45.4061039,90.5790399 L112.664138,90.5790399 C116.655147,90.5790399 119.903801,87.3133594 119.903801,83.2985134 L119.903801,36.5403712 C119.903801,32.4710405 116.723253,29.2836818 112.664138,29.2836818 Z M45.4061039,32.6889795 L112.664138,32.6889795 C114.816286,32.6889795 116.498503,34.3814124 116.498503,36.5403712 L116.498503,76.9578492 L41.5819495,76.9578492 L41.5819546,36.5403712 C41.5785494,34.3814124 43.2607664,32.6889795 45.4061039,32.6889795 Z M112.664138,87.1737422 L45.4061039,87.1737422 C43.2607664,87.1737422 41.5785494,85.4710934 41.5785494,83.2985134 L41.5785494,80.3631468 L116.495103,80.3631468 L116.495098,83.2985134 C116.498503,85.4710934 114.816286,87.1737422 112.664138,87.1737422 Z" id="Shape" fill-rule="nonzero"></path>
                <path d="M78.9857442,59.4818616 C81.4682062,59.4818616 83.4875477,57.46252 83.4875477,54.9766527 C83.4875477,52.4907854 81.4682062,50.4714439 78.9857442,50.4714439 C76.5032822,50.4714439 74.4805354,52.4907854 74.4805354,54.9766527 C74.4805354,57.46252 76.5032822,59.4818616 78.9857442,59.4818616 Z M78.9857442,53.8801469 C79.5918872,53.8801469 80.0856554,54.3739151 80.0856554,54.980058 C80.0856554,55.586201 79.5918872,56.0799692 78.9857442,56.0799692 C78.3796012,56.0799692 77.8858331,55.586201 77.8858331,54.980058 C77.8858331,54.3739151 78.3796012,53.8801469 78.9857442,53.8801469 Z" id="Shape" fill-rule="nonzero"></path>
                <path d="M63.5290981,56.7371916 L65.4905496,56.7371916 C65.6540039,57.9903412 65.9264277,59.2094377 66.4031693,60.333186 L64.7481947,61.2900746 C63.9343285,61.7600057 63.6550941,62.8020268 64.1250252,63.6158929 C64.4417179,64.1641458 65.0138079,64.4672173 65.6029244,64.4672173 C65.8923747,64.4672173 66.1852303,64.3957061 66.4542488,64.2390624 L68.1671135,63.2515261 C68.9196843,64.2322518 69.7914405,65.1074133 70.7789769,65.8531735 L69.7880352,67.5728488 C69.3181042,68.386715 69.5973386,69.428736 70.4112047,69.8986671 C70.6802232,70.0519055 70.9730788,70.1268221 71.2625291,70.1268221 C71.8516456,70.1268221 72.4237356,69.8203453 72.7404283,69.2754976 L73.7075328,67.5966859 C74.8278758,68.066617 76.043567,68.3322302 77.289906,68.4922792 L77.289906,70.4945942 C77.289906,71.4344564 78.0526927,72.197243 78.9925548,72.197243 C79.932417,72.197243 80.6952037,71.4344564 80.6952037,70.4945942 L80.6952037,68.4922792 C81.9449479,68.3356355 83.1572339,68.0700223 84.2775768,67.5966859 L85.2480866,69.2754976 C85.5647793,69.8237506 86.1368693,70.1268221 86.7225805,70.1268221 C87.0120308,70.1268221 87.3048864,70.0553108 87.5739049,69.8986671 C88.3877711,69.428736 88.6670055,68.386715 88.1970744,67.5728488 L87.2027275,65.8565788 C88.1902638,65.1108186 89.06202,64.2356571 89.8145908,63.2515261 L91.5274555,64.2390624 C91.7964741,64.3923008 92.0893297,64.4672173 92.37878,64.4672173 C92.9644912,64.4672173 93.5399865,64.1641458 93.8532738,63.6158929 C94.3266102,62.8020268 94.0473758,61.7600057 93.2301044,61.2900746 L91.5751297,60.333186 C92.0552767,59.2094377 92.3242952,57.9903412 92.4877495,56.7371916 L94.4492009,56.7371916 C95.3890631,56.7371916 96.1518498,55.974405 96.1518498,55.0345428 C96.1518498,54.0946806 95.3890631,53.331894 94.4492009,53.331894 L92.4945601,53.331894 C92.3413217,52.0753391 92.0757085,50.849432 91.6023721,49.7222784 L93.2301044,48.7824163 C94.0439705,48.3124852 94.3232049,47.2704641 93.8532738,46.456598 C93.3833428,45.6359212 92.3379164,45.3634974 91.5274555,45.8334285 L89.8656703,46.7937224 C89.1130995,45.7959702 88.2311274,44.9139981 87.2367805,44.158022 L88.1936691,42.5030474 C88.6670055,41.6891812 88.3877711,40.6471602 87.5704996,40.1772291 C86.7600388,39.7107033 85.7180177,39.9865324 85.2446813,40.8003985 L84.3184404,42.4042937 C83.1844763,41.9241468 81.9551638,41.651723 80.6917984,41.4950793 L80.6917984,39.581302 C80.6917984,38.6414398 79.9290117,37.8786531 78.9891495,37.8786531 C78.0492874,37.8786531 77.2865007,38.6414398 77.2865007,39.581302 L77.2865007,41.491674 C76.0231353,41.651723 74.7938228,41.9207415 73.6598587,42.4008885 L72.7336177,40.7969933 C72.2602813,39.9797218 71.2182603,39.7038927 70.4077994,40.1738238 C69.590528,40.6471602 69.3112936,41.6857759 69.7812246,42.5030474 L70.7381133,44.1614273 C69.7471717,44.9174034 68.8651996,45.7993755 68.1126288,46.7971277 L66.4508435,45.8334285 C65.6335721,45.3600921 64.5949563,45.6393265 64.1250252,46.456598 C63.6550941,47.2704641 63.9343285,48.3124852 64.7481947,48.7824163 L66.375927,49.7222784 C65.9025906,50.8528373 65.6369774,52.0753391 65.483739,53.331894 L63.5290981,53.331894 C62.589236,53.331894 61.8264493,54.0946806 61.8264493,55.0345428 C61.8264493,55.974405 62.589236,56.7371916 63.5290981,56.7371916 Z M78.9857442,44.7233015 C84.645349,44.7233015 89.2527167,49.3306692 89.2527167,54.9902739 C89.2527167,60.6498787 84.645349,65.2572464 78.9857442,65.2572464 C73.3261395,65.2572464 68.7187718,60.6498787 68.7187718,54.9902739 C68.7187718,49.3306692 73.3261395,44.7233015 78.9857442,44.7233015 Z" id="Shape" fill-rule="nonzero"></path>
            </g>
        </g>
    </g>
</svg>