<?xml version="1.0" encoding="UTF-8"?>
<svg width="475px" height="475px" viewBox="0 0 475 475" version="1.1" xmlns="http://www.w3.org/2000/svg" xmlns:xlink="http://www.w3.org/1999/xlink">
    <!-- Generator: Sketch 52.5 (67469) - http://www.bohemiancoding.com/sketch -->
    <title>Ecosystem Diagram</title>
    <desc>Created with Sketch.</desc>
    <defs>
        <radialGradient cx="48.0897927%" cy="52.2444671%" fx="48.0897927%" fy="52.2444671%" r="55.1999759%" gradientTransform="translate(0.480898,0.522445),scale(1.000000,0.988828),rotate(90.000000),translate(-0.480898,-0.522445)" id="radialGradient-1">
            <stop stop-color="#FFFFFF" offset="0%"></stop>
            <stop stop-color="#FFFFFF" stop-opacity="0" offset="100%"></stop>
        </radialGradient>
        <linearGradient x1="-44.2367274%" y1="-42.1431643%" x2="90.3577292%" y2="89.6040164%" id="linearGradient-2">
            <stop stop-color="#446A89" offset="0%"></stop>
            <stop stop-color="#20BEF0" offset="100%"></stop>
        </linearGradient>
    </defs>
    <g id="Symbols" stroke="none" stroke-width="1" fill="none" fill-rule="evenodd">
        <g id="home/yellow-banner-2" transform="translate(-815.000000, -113.000000)">
            <g id="home/Ecosystem-Diagram" transform="translate(815.000000, 112.000000)">
                <g id="Group-3">
                    <g id="Group-2" transform="translate(0.000000, 0.500000)">
                        <ellipse id="Oval" fill="url(#radialGradient-1)" fill-rule="nonzero" opacity="0.626976376" cx="243.708564" cy="241.626411" rx="190.943459" ry="193.100774"></ellipse>
                        <path d="M240.401373,435.602422 C344.72182,435.602422 429.290252,349.148261 429.290252,242.501649 C429.290252,135.855036 344.72182,49.4008747 240.401373,49.4008747 C136.080926,49.4008747 51.5124939,135.855036 51.5124939,242.501649 C51.5124939,349.148261 136.080926,435.602422 240.401373,435.602422 Z" id="Oval" stroke="#FFFFFF" stroke-linecap="round" stroke-linejoin="round" stroke-dasharray="3,4" fill-rule="nonzero"></path>
                        <ellipse id="Oval" stroke="#FFFFFF" stroke-width="8" stroke-linecap="round" stroke-linejoin="round" fill-rule="nonzero" cx="240.052038" cy="240.010125" rx="175.684416" ry="179.601874"></ellipse>
                        <g id="Shapes-/-Circle-/-EIM-Facet" transform="translate(176.584481, 0.974609)">
                            <path d="M63.5,127 C28.4250187,127 0,98.5670457 0,63.5 C0,28.4329543 28.4250187,0 63.5,0 C98.5670457,0 127,28.4329543 127,63.5 C127,98.5670457 98.5670457,127 63.5,127 Z" id="Fill-16" fill="#FFFFFF" fill-rule="evenodd"></path>
                            <text id="Type-something" font-family="Rubik-Regular, Rubik" font-size="14" font-weight="normal" fill="#FB332D">
                                <tspan x="41.8969011" y="32.5">Assets</tspan>
                            </text>
                        </g>
                        <g id="Shapes-/-Circle-/-EIM-Facet" transform="translate(322.170195, 76.734378)">
                            <path d="M63.5,127 C28.4250187,127 0,98.5670457 0,63.5 C0,28.4329543 28.4250187,0 63.5,0 C98.5670457,0 127,28.4329543 127,63.5 C127,98.5670457 98.5670457,127 63.5,127 Z" id="Fill-16" fill="#FFFFFF" fill-rule="evenodd"></path>
                            <text id="Type-something" font-family="Rubik-Regular, Rubik" font-size="14" font-weight="normal" fill="#FB332D">
                                <tspan x="35.4989011" y="32.5">Domains</tspan>
                            </text>
                        </g>
                        <g id="Shapes-/-Circle-/-EIM-Facet" transform="translate(40.484826, 76.734378)">
                            <path d="M63.5,127 C28.4250187,127 0,98.5670457 0,63.5 C0,28.4329543 28.4250187,0 63.5,0 C98.5670457,0 127,28.4329543 127,63.5 C127,98.5670457 98.5670457,127 63.5,127 Z" id="Fill-16" fill="#FFFFFF" fill-rule="evenodd"></path>
                            <text id="Type-something" font-family="Rubik-Regular, Rubik" font-size="14" font-weight="normal" fill="#FB332D">
                                <tspan x="25.5799011" y="32.5">Locations &amp; </tspan>
                                <tspan x="32.4609011" y="49.5">platforms</tspan>
                            </text>
                        </g>
                        <g id="Shapes-/-Circle-/-EIM-Facet" transform="translate(0.900065, 220.515032)">
                            <path d="M63.5,127 C28.4250187,127 0,98.5670457 0,63.5 C0,28.4329543 28.4250187,0 63.5,0 C98.5670457,0 127,28.4329543 127,63.5 C127,98.5670457 98.5670457,127 63.5,127 Z" id="Fill-16" fill="#FFFFFF" fill-rule="evenodd"></path>
                            <text id="Type-something" font-family="Rubik-Regular, Rubik" font-size="14" font-weight="normal" fill="#FB332D">
                                <tspan x="32.4749011" y="32.5">Policies &amp; </tspan>
                                <tspan x="45.3759011" y="49.5">SOP's</tspan>
                            </text>
                        </g>
                        <g id="Shapes-/-Circle-/-EIM-Facet" transform="translate(347.652665, 220.515032)">
                            <path d="M63.5,127 C28.4250187,127 0,98.5670457 0,63.5 C0,28.4329543 28.4250187,0 63.5,0 C98.5670457,0 127,28.4329543 127,63.5 C127,98.5670457 98.5670457,127 63.5,127 Z" id="Fill-16" fill="#FFFFFF" fill-rule="evenodd"></path>
                            <text id="Type-something" font-family="Rubik-Regular, Rubik" font-size="14" font-weight="normal" fill="#FB332D">
                                <tspan x="20.7849011" y="32.5">Communities</tspan>
                            </text>
                        </g>
                        <g id="Shapes-/-Circle-/-EIM-Facet" transform="translate(258.702638, 347.692086)">
                            <path d="M63.5,127 C28.4250187,127 0,98.5670457 0,63.5 C0,28.4329543 28.4250187,0 63.5,0 C98.5670457,0 127,28.4329543 127,63.5 C127,98.5670457 98.5670457,127 63.5,127 Z" id="Fill-16" fill="#FFFFFF" fill-rule="evenodd"></path>
                            <text id="Type-something" font-family="Rubik-Regular, Rubik" font-size="14" font-weight="normal" fill="#FB332D">
                                <tspan x="21.1839011" y="32.5">Departments</tspan>
                            </text>
                        </g>
                        <g id="Shapes-/-Circle-/-EIM-Facet" transform="translate(103.952383, 347.692086)">
                            <path d="M63.5,127 C28.4250187,127 0,98.5670457 0,63.5 C0,28.4329543 28.4250187,0 63.5,0 C98.5670457,0 127,28.4329543 127,63.5 C127,98.5670457 98.5670457,127 63.5,127 Z" id="Fill-16" fill="#FFFFFF" fill-rule="evenodd"></path>
                            <text id="Type-something" font-family="Rubik-Regular, Rubik" font-size="14" font-weight="normal" fill="#FB332D">
                                <tspan x="45.3199011" y="32.5">Users</tspan>
                            </text>
                        </g>
                        <path d="M282.463455,289.859602 C281.221145,289.343925 279.790522,289.627425 278.838751,290.577892 L271.782217,297.607822 L238.361781,264.187386 C236.499099,262.304385 233.960535,261.244801 231.311898,261.244801 C228.663261,261.244801 226.124696,262.304385 224.262015,264.187386 L190.841579,297.607822 L183.785045,290.524685 C182.831325,289.568468 181.39401,289.284024 180.147972,289.804908 C178.901933,290.325793 178.094675,291.548543 178.105234,292.899032 L178.105234,321.118517 C178.105234,322.955094 179.594073,324.443933 181.43065,324.443933 L209.650135,324.443933 C210.996987,324.446343 212.212292,323.636104 212.728036,322.391907 C213.24378,321.14771 212.958105,319.715286 212.00453,318.764122 L204.941345,311.707588 L231.311898,285.337035 L257.682451,311.707588 L250.599314,318.764122 C249.645738,319.715286 249.360063,321.14771 249.875807,322.391907 C250.391552,323.636104 251.606856,324.446343 252.953709,324.443933 L281.193146,324.443933 C283.029723,324.443933 284.518562,322.955094 284.518562,321.118517 L284.518562,292.899032 C284.504981,291.565452 283.695992,290.368987 282.463455,289.859602 Z" id="Path" stroke="#FFFFFF" stroke-width="2" fill="url(#linearGradient-2)"></path>
                        <path d="M174.929603,256.765452 C173.657999,257.1675 172.269204,256.770962 171.401591,255.75811 L153.262456,234.140731 C152.081927,232.733831 152.265437,230.636306 153.672337,229.455778 L175.305,211.303817 C176.335201,210.436231 177.786989,210.275728 178.981827,210.897324 C180.176664,211.51892 180.878569,212.799849 180.759484,214.141429 L179.869339,224.100001 L217.021019,227.350352 L220.27137,190.198671 L210.324804,189.33318 C208.982927,189.217493 207.843342,188.303821 207.43867,187.019197 C207.033999,185.734572 207.444165,184.332711 208.477463,183.468817 L230.094842,165.329682 C231.501741,164.149153 233.599266,164.332662 234.779795,165.739562 L252.91893,187.356941 C253.795097,188.384689 253.962669,189.840265 253.342967,191.040224 C252.723264,192.240183 251.43938,192.946174 250.094143,192.826709 L240.135572,191.936564 L236.016275,239.020345 C235.799748,241.660117 234.536182,244.103563 232.507209,245.806074 C230.478235,247.508585 227.852494,248.328654 225.215228,248.0835 L178.131446,243.964203 L177.24458,253.885295 C177.126429,255.225182 176.212738,256.361942 174.929603,256.765452 Z" id="Path-Copy" stroke="#FFFFFF" stroke-width="2" fill="url(#linearGradient-2)"></path>
                        <path d="M259.256881,190.331469 C259.429905,189.009091 260.376221,187.917999 261.660845,187.559725 L288.918774,180.255985 C290.692771,179.780644 292.51622,180.833412 292.991561,182.607409 L300.300465,209.884611 C300.651384,211.184947 300.183297,212.568546 299.114979,213.388738 C298.046662,214.208931 296.589108,214.303729 295.423551,213.628825 L286.774212,208.613405 L268.127415,240.910605 L300.424614,259.557402 L305.412616,250.908524 C306.084566,249.741261 307.394244,249.094581 308.72953,249.27073 C310.064816,249.446879 311.161991,250.411068 311.508255,251.712651 L318.811995,278.97058 C319.287336,280.744577 318.234567,282.568026 316.46057,283.043367 L289.202641,290.347107 C287.900902,290.706838 286.510882,290.243557 285.685247,289.174792 C284.859613,288.106026 284.762361,286.644067 285.439154,285.475357 L290.454574,276.826018 L249.523066,253.194201 C247.22213,251.882345 245.541621,249.70452 244.856103,247.146134 C244.170586,244.587747 244.537036,241.861441 245.873778,239.574873 L269.505595,198.643365 L260.888839,193.646757 C259.724421,192.973415 259.080309,191.664915 259.256881,190.331469 Z" id="Path-Copy-2" stroke="#FFFFFF" stroke-width="2" fill="url(#linearGradient-2)"></path>
                    </g>
                </g>
            </g>
        </g>
    </g>
</svg>