<?xml version="1.0" encoding="UTF-8"?>
<svg width="120px" height="58px" viewBox="0 0 120 58" version="1.1" xmlns="http://www.w3.org/2000/svg" xmlns:xlink="http://www.w3.org/1999/xlink">
    <!-- Generator: Sketch 52.5 (67469) - http://www.bohemiancoding.com/sketch -->
    <title>Logos / eimdb</title>
    <desc>Created with Sketch.</desc>
    <g id="Logos-/-eimdb" stroke="none" stroke-width="1" fill="none" fill-rule="evenodd">
        <g id="Group-26" transform="translate(0.531885, 0.562368)">
            <polygon id="Fill-8" fill="#43484D" points="23.9486161 56.8639243 30.0765714 56.8639243 30.0765714 33.0325739 23.9486161 33.0325739"></polygon>
            <path d="M45.8326963,38.1777844 L38.7476221,38.1777844 L38.7476221,56.8639243 L32.6196667,56.8639243 L32.6196667,33.0325739 L33.4454811,33.0325739 L53.9735741,33.0325739 L58.3875927,33.0327757 C58.3875927,33.0327757 66.2815111,32.8816517 66.2815111,40.8507601 L66.2815111,56.8641261 L60.5752001,56.8641261 L60.5752001,41.456082 C60.5752001,41.456082 60.670195,38.1775991 57.2935944,38.1775991 L53.9735741,38.1775991 L51.586894,38.1777844 L51.586894,56.8641261 L45.8326963,56.8641261 L45.8326963,38.1777844 Z" id="Combined-Shape" fill="#43484D"></path>
            <path d="M21.2098662,33.0325739 L21.2098662,37.7231994 L12.0809015,37.7231994 C12.0809015,37.7231994 6.8353288,37.4965133 6.8353288,42.4390122 L21.2098662,42.4390122 L21.2098662,47.2811746 L6.8353288,47.2811746 C6.8353288,47.2811746 6.30598181,52.1984862 11.4000176,52.1984862 L21.2098662,52.1984862 L21.2098662,56.8643372 L10.5680097,56.8643372 C10.5680097,56.8643372 0.00130217349,56.8676405 0.00130217349,44.9358619 C0.00130217349,44.9358619 -0.35173346,33.0325739 10.5680097,33.0325739 L21.2098662,33.0325739 Z" id="Fill-10" fill="#43484D"></path>
            <path d="M30.5567825,3.3040832 C30.5567825,5.12872 29.0773361,6.60816641 27.2526993,6.60816641 C25.4276496,6.60816641 23.9486161,5.12872 23.9486161,3.3040832 C23.9486161,1.4794464 25.4276496,-5.68434189e-14 27.2526993,-5.68434189e-14 C29.0773361,-5.68434189e-14 30.5567825,1.4794464 30.5567825,3.3040832" id="Fill-16" fill="#C45A15"></path>
            <path d="M30.5567825,11.5622267 C30.5567825,13.3868635 29.0773361,14.8663099 27.2526993,14.8663099 C25.4276496,14.8663099 23.9486161,13.3868635 23.9486161,11.5622267 C23.9486161,9.73717697 25.4276496,8.25814347 27.2526993,8.25814347 C29.0773361,8.25814347 30.5567825,9.73717697 30.5567825,11.5622267" id="Fill-17" fill="#C45A15"></path>
            <path d="M30.5567825,19.8203701 C30.5567825,21.6450069 29.0773361,23.1244534 27.2526993,23.1244534 C25.4276496,23.1244534 23.9486161,21.6450069 23.9486161,19.8203701 C23.9486161,17.9953204 25.4276496,16.5162869 27.2526993,16.5162869 C29.0773361,16.5162869 30.5567825,17.9953204 30.5567825,19.8203701" id="Fill-18" fill="#C45A15"></path>
            <path d="M30.5567825,28.0785136 C30.5567825,29.9031504 29.0773361,31.3825968 27.2526993,31.3825968 C25.4276496,31.3825968 23.9486161,29.9031504 23.9486161,28.0785136 C23.9486161,26.2538768 25.4276496,24.7744304 27.2526993,24.7744304 C29.0773361,24.7744304 30.5567825,26.2538768 30.5567825,28.0785136" id="Fill-19" fill="#C45A15"></path>
            <path d="M85.1157332,24.3615232 L91.502891,24.3615232 L91.502891,56.8856987 L83.7955592,56.8856987 C73.3385803,57.3800253 67.978986,53.6569811 67.7167765,45.7165661 C67.7060237,44.6824165 67.7060237,44.0873167 67.7167765,43.9312668 C68.0028733,36.5656314 71.9805995,32.9787019 79.6499551,33.1704784 C81.0139466,33.1704784 82.8358726,33.1704784 85.1157332,33.1704784 L85.1157332,24.3615232 Z M85.1157332,38.2679062 C83.6603429,38.2661589 82.2284744,38.2652852 80.8201276,38.2652852 C76.5608127,38.2652852 74.3758455,40.3585176 74.2652262,44.5449824 C74.2652262,43.8393304 74.2652262,44.1187686 74.2652262,45.3832968 C74.2652262,49.5864284 76.6678701,51.758425 81.473158,51.8992865 L85.1157332,51.8992986 L85.1157332,38.2679062 Z" id="Combined-Shape" fill="#204E78" fill-rule="nonzero"></path>
            <path d="M112.393212,24.3615232 L118.78037,24.3615232 L118.78037,56.8856987 L111.073038,56.8856987 C100.616059,57.3800253 95.2564645,53.6569811 94.994255,45.7165661 C94.9835022,44.6824165 94.9835022,44.0873167 94.994255,43.9312668 C95.2803518,36.5656314 99.258078,32.9787019 106.927434,33.1704784 C108.291425,33.1704784 110.113351,33.1704784 112.393212,33.1704784 L112.393212,24.3615232 Z M112.393212,38.2679062 C110.937821,38.2661589 109.505953,38.2652852 108.097606,38.2652852 C103.838291,38.2652852 101.653324,40.3585176 101.542705,44.5449824 C101.542705,43.8393304 101.542705,44.1187686 101.542705,45.3832968 C101.542705,49.5864284 103.945349,51.758425 108.750637,51.8992865 L112.393212,51.8992986 L112.393212,38.2679062 Z" id="Combined-Shape-Copy-2" fill="#204E78" fill-rule="nonzero" transform="translate(106.883280, 40.645339) scale(-1, 1) translate(-106.883280, -40.645339) "></path>
        </g>
    </g>
</svg>