<?xml version="1.0" encoding="UTF-8"?>
<svg width="410px" height="409px" viewBox="0 0 410 409" version="1.1" xmlns="http://www.w3.org/2000/svg" xmlns:xlink="http://www.w3.org/1999/xlink">
    <!-- Generator: Sketch 52.5 (67469) - http://www.bohemiancoding.com/sketch -->
    <title>Excellence-Diagram-2</title>
    <desc>Created with Sketch.</desc>
    <defs>
        <radialGradient cx="50%" cy="51.0151323%" fx="50%" fy="51.0151323%" r="47.4072717%" gradientTransform="translate(0.500000,0.510151),scale(0.996701,1.000000),rotate(-90.000000),translate(-0.500000,-0.510151)" id="radialGradient-1">
            <stop stop-color="#FFFFFF" offset="0%"></stop>
            <stop stop-color="#FFFFFF" stop-opacity="0" offset="100%"></stop>
        </radialGradient>
    </defs>
    <g id="Excellence-Diagram-2" stroke="none" stroke-width="1" fill="none" fill-rule="evenodd">
        <path d="M205.235886,408.889158 C92.1911811,408.889158 0.578934099,317.553694 0.578934099,204.90747 C0.578934099,92.2357548 92.1911811,0.92578125 205.235886,0.92578125 C318.255014,0.92578125 409.892837,92.2357548 409.892837,204.90747 C409.892837,317.553694 318.255014,408.889158 205.235886,408.889158 Z" id="Fill-17-Copy" fill="url(#radialGradient-1)" style="mix-blend-mode: soft-light;"></path>
        <g id="Group-7" transform="translate(58.188090, 55.243445)" fill="#F8F9FC" fill-rule="nonzero" opacity="0.55">
            <ellipse id="Oval" cx="147.433683" cy="149.664025" rx="147.361838" ry="148.940004"></ellipse>
        </g>
        <ellipse id="Oval" stroke="#FFFFFF" stroke-width="5" stroke-linecap="round" stroke-linejoin="round" fill-rule="nonzero" cx="205.621772" cy="204.90747" rx="168.927772" ry="172.594034"></ellipse>
        <path d="M205.621772,400.119176 C311.144056,400.119176 396.686769,312.719918 396.686769,204.90747 C396.686769,97.0950214 311.144056,9.69576348 205.621772,9.69576348 C100.099488,9.69576348 14.5567755,97.0950214 14.5567755,204.90747 C14.5567755,312.719918 100.099488,400.119176 205.621772,400.119176 Z" id="Oval" stroke="#FFFFFF" stroke-width="2" stroke-linecap="round" stroke-linejoin="round" stroke-dasharray="5,9" fill-rule="nonzero"></path>
        <path d="M205.621772,368.432094 C294.015508,368.432094 365.672788,295.219626 365.672788,204.90747 C365.672788,114.595313 294.015508,41.3828453 205.621772,41.3828453 C117.228037,41.3828453 45.5707566,114.595313 45.5707566,204.90747 C45.5707566,295.219626 117.228037,368.432094 205.621772,368.432094 Z" id="Oval" stroke="#FFFFFF" stroke-linecap="round" stroke-linejoin="round" stroke-dasharray="3,4" fill-rule="nonzero"></path>
        <g id="Group-6" transform="translate(17.992140, 18.865234)">
            <polygon id="Polygon-Copy-12" fill="#FFFFFF" fill-rule="nonzero" transform="translate(68.562329, 68.288801) rotate(-90.000000) translate(-68.562329, -68.288801) " points="68.5623286 0.34251167 127.405541 34.3156562 127.405541 102.261945 68.5623286 136.23509 9.7191162 102.261945 9.7191162 34.3156562"></polygon>
            <text id="Business-Drivers-&amp;-C" font-family="Rubik-Regular, Rubik" font-size="12" font-weight="normal" fill="#FB332D">
                <tspan x="16.6143286" y="27.6534508">Business Drivers &amp; </tspan>
                <tspan x="18.9603286" y="41.6534508">Critical Processes</tspan>
            </text>
        </g>
        <g id="Group-6-Copy" transform="translate(263.026017, 18.865234)">
            <polygon id="Polygon-Copy-12" fill="#FFFFFF" fill-rule="nonzero" transform="translate(68.100320, 68.288801) rotate(-90.000000) translate(-68.100320, -68.288801) " points="68.1003204 0.34251167 126.943533 34.3156562 126.943533 102.261945 68.1003204 136.23509 9.25710803 102.261945 9.25710803 34.3156562"></polygon>
            <text id="Information,-Data,-a" font-family="Rubik-Regular, Rubik" font-size="12" font-weight="normal" fill="#FB332D">
                <tspan x="18.0783204" y="27.6534508">Information, Data, </tspan>
                <tspan x="33.5403204" y="41.6534508">and Content</tspan>
            </text>
        </g>
        <g id="Group-6-Copy-2" transform="translate(17.992140, 253.605469)">
            <polygon id="Polygon-Copy-12" fill="#FFFFFF" fill-rule="nonzero" transform="translate(68.562329, 68.230842) rotate(-90.000000) translate(-68.562329, -68.230842) " points="68.5623286 0.284553197 127.405541 34.2576977 127.405541 102.203987 68.5623286 136.177131 9.7191162 102.203987 9.7191162 34.2576977"></polygon>
            <text id="Governance,-Complian" font-family="Rubik-Regular, Rubik" font-size="12" font-weight="normal" fill="#FB332D">
                <tspan x="33.6723286" y="27.5954923">Governance, </tspan>
                <tspan x="28.6683286" y="41.5954923">Compliance, &amp; </tspan>
                <tspan x="45.1083286" y="55.5954923">Controls</tspan>
            </text>
        </g>
        <g id="Group-6-Copy-3" transform="translate(263.026017, 254.605469)">
            <polygon id="Polygon-Copy-12" fill="#FFFFFF" fill-rule="nonzero" transform="translate(68.100320, 67.960676) rotate(-90.000000) translate(-68.100320, -67.960676) " points="68.1003204 0.0143866699 126.943533 33.9875312 126.943533 101.93382 68.1003204 135.906965 9.25710803 101.93382 9.25710803 33.9875312"></polygon>
            <text id="IM-Technology-Archit" font-family="Rubik-Regular, Rubik" font-size="12" font-weight="normal" fill="#FB332D">
                <tspan x="28.5723204" y="27.3253258">IM Technology </tspan>
                <tspan x="27.4263204" y="41.3253258">Architecture &amp; </tspan>
                <tspan x="44.3163204" y="55.3253258">Services</tspan>
            </text>
        </g>
        <text id="Information-Ecosyste" font-family="Chivo-Bold, Chivo" font-size="30" font-weight="bold" line-spacing="30" fill="#FB332D">
            <tspan x="111.455886" y="171.183326">Information</tspan>
            <tspan x="120.785886" y="201.183326">Ecosystem</tspan>
        </text>
    </g>
</svg>